<svg id="Layer_1" data-name="Layer 1" xmlns="http://www.w3.org/2000/svg" viewBox="0 0 512 512"><path d="M370.64,200.63l-14.51-30.79,73.42-34.6L444.06,166Zm90,128.35-79.75-15.67,6.64-33.81,80,16.14Zm-153.17-223-30.31-16.4,37.48-70.34,30.08,15.93ZM172.73,441.52l-36.17-76.73L105.77,379.3q-12.8,6-25.45,1.28a32.23,32.23,0,0,1-18.46-17.06L34.18,304.78a32.22,32.22,0,0,1-1.41-25.1Q37.18,266.9,50,260.88l80.53-38L200.38,118.2,311.56,354.1,186.3,341.35l-19,8.93L203.51,427ZM315,287.65,253.81,157.86a108.3,108.3,0,0,1,34.47,18.48,93.3,93.3,0,0,1,34.38,72.95A108.57,108.57,0,0,1,315,287.65ZM65.42,291.22l26.79,56.84,87.63-41.3,75.26,7.37L195.27,187.18l-42.22,62.74Z"/></svg>