<svg id="Layer_1" data-name="Layer 1" xmlns="http://www.w3.org/2000/svg" viewBox="0 0 512 512"><g id="页面-1"><g id="System"><g id="t_shirt_line" data-name="t shirt line"><rect id="矩形" x="23.51" y="29.64" width="464.98" height="464.98" fill="none"/><path id="形状" d="M161.48,132.18,89.66,204l28.62,28.62,15.28-20.37c11.59-15.44,36.16-6.56,35.2,12.72l-7.62,152.43a19.38,19.38,0,0,0,19.35,20.34h151a19.38,19.38,0,0,0,19.35-20.34L343.24,225c-1-19.28,23.61-28.16,35.2-12.72l15.28,20.37L422.34,204l-71.82-71.83c-7.31-7.31-18-5.67-27.4-5.67a77.51,77.51,0,0,1-134.24,0C179.45,126.51,168.79,124.87,161.48,132.18Zm-27.4-27.4a58.11,58.11,0,0,1,41.1-17h24.63a21.35,21.35,0,0,1,19.95,13.77,38.77,38.77,0,0,0,72.47,0,21.36,21.36,0,0,1,19.95-13.77h24.64a58.11,58.11,0,0,1,41.1,17l71.82,71.83a38.74,38.74,0,0,1,0,54.79L421.11,260a38.66,38.66,0,0,1-36.81,10.19l5.26,105.25a58.12,58.12,0,0,1-58.05,61h-151a58.12,58.12,0,0,1-58.05-61l5.26-105.25A38.65,38.65,0,0,1,90.89,260L62.26,231.4a38.74,38.74,0,0,1,0-54.79Z" fill-rule="evenodd"/></g></g></g></svg>