<svg id="Layer_1" data-name="Layer 1" xmlns="http://www.w3.org/2000/svg" viewBox="0 0 512 512"><path d="M483.27,252.49l-1.06-15.75h0l-.73-10.68-.27,0C469.57,127.35,390.83,49.41,292.09,38.7l0-.31-11.34-.63-14.86-.82,0,.52c-116.62,1.56-211,96.89-211,213.88,0,.83,0,1.67,0,2.51l-.52,0,1.19,14.83h0L56.5,280h.32A214,214,0,0,0,231.08,461.91l0,.29,10.6,1.34h0l15.67,2,0-.6c3.82.2,7.65.33,11.46.33A213.91,213.91,0,0,0,482.7,252.41ZM267.64,63.43c0,1.2,0,2.41,0,3.6q0,2.41-.06,4.83c0,.57-.05,1.13-.07,1.69,0,1-.06,2.08-.11,3.12,0,.64-.09,1.27-.13,1.91-.05,1-.1,1.91-.18,2.86-.05.68-.12,1.36-.18,2-.08.91-.15,1.81-.24,2.71-.07.69-.16,1.38-.24,2.07-.09.88-.19,1.76-.3,2.63s-.2,1.43-.3,2.15-.22,1.69-.35,2.53-.24,1.42-.35,2.13-.27,1.67-.42,2.5-.27,1.43-.41,2.15-.31,1.63-.47,2.44-.31,1.44-.47,2.15-.34,1.61-.52,2.41-.35,1.42-.52,2.13-.38,1.59-.59,2.38-.37,1.4-.56,2.1-.42,1.59-.65,2.37-.41,1.4-.62,2.09-.45,1.56-.69,2.34-.45,1.38-.68,2.07-.49,1.54-.75,2.31-.48,1.37-.72,2.06-.53,1.52-.8,2.27-.52,1.36-.78,2-.56,1.5-.85,2.24-.55,1.34-.82,2-.6,1.49-.91,2.23-.58,1.32-.87,2-.63,1.47-1,2.2-.61,1.31-.91,2-.67,1.45-1,2.17-.63,1.28-1,1.93-.7,1.43-1.07,2.14-.67,1.27-1,1.9-.74,1.42-1.12,2.12-.7,1.25-1,1.88-.76,1.39-1.16,2.08l-1.09,1.86c-.4.68-.8,1.36-1.21,2s-.76,1.21-1.13,1.82-.84,1.35-1.27,2-.78,1.19-1.17,1.79-.87,1.33-1.31,2-.81,1.18-1.21,1.77l-1.36,1.95c-.41.58-.84,1.15-1.26,1.73s-.92,1.28-1.4,1.92-.86,1.14-1.3,1.7-1,1.26-1.44,1.88-.89,1.11-1.34,1.67-1,1.23-1.48,1.84L223.48,188c-.51.6-1,1.21-1.53,1.8s-.95,1.08-1.42,1.62-1,1.18-1.56,1.76-1,1.05-1.47,1.58-1.06,1.15-1.6,1.71-1,1-1.5,1.55-1.09,1.13-1.64,1.68-1,1-1.53,1.51-1.12,1.1-1.69,1.64-1,1-1.57,1.48-1.14,1.07-1.72,1.59-1.07,1-1.61,1.45-1.16,1-1.75,1.55-1.1.94-1.65,1.4-1.18,1-1.79,1.51-1.12.92-1.69,1.38-1.2,1-1.81,1.46-1.15.89-1.73,1.33l-1.84,1.42-1.76,1.29L188.74,220c-.59.43-1.19.84-1.79,1.25s-1.28.9-1.92,1.33-1.21.81-1.82,1.21-1.29.87-2,1.29l-1.85,1.16-2,1.24c-.62.38-1.26.75-1.88,1.12l-2,1.19-1.92,1.09-2,1.14-2,1c-.68.36-1.36.73-2,1.08l-2,1-2.09,1-2,.95-2.11,1-2,.91c-.71.32-1.41.63-2.12.93s-1.39.58-2.08.86l-2.15.89-2.1.81-2.18.83-2.14.76-2.18.77c-.72.25-1.45.48-2.17.72l-2.21.72c-.72.23-1.46.44-2.19.66l-2.23.67-2.22.61-2.24.61-2.25.56c-.75.19-1.5.38-2.26.55s-1.51.34-2.27.51l-2.27.5-2.31.45-2.28.44-2.33.4-2.3.38c-.78.13-1.57.24-2.35.35l-2.31.32-2.38.29-2.33.26c-.79.09-1.6.16-2.4.23s-1.55.15-2.33.21l-2.43.17-2.34.15-2.44.1-2.35.09c-.83,0-1.65,0-2.48.05l-1.79,0c0-1.2,0-2.39,0-3.58C80.89,148.11,164.56,64.05,267.64,63.43ZM83.22,280.91c.32,0,.63,0,1,0,.86,0,1.72,0,2.58-.07l2.7-.1c.86,0,1.71-.08,2.55-.13l2.72-.16,2.52-.19c.9-.08,1.81-.15,2.71-.24s1.67-.16,2.5-.25l2.71-.29,2.47-.31,2.71-.37c.82-.11,1.63-.24,2.45-.36l2.7-.43,2.42-.42,2.7-.5,2.4-.48c.89-.18,1.79-.37,2.68-.57l2.38-.53,2.67-.63,2.36-.59,2.65-.69,2.34-.64,2.64-.77,2.3-.69,2.63-.83,2.28-.75q1.31-.43,2.61-.9c.75-.26,1.51-.52,2.26-.8s1.73-.63,2.59-1l2.23-.85c.86-.33,1.71-.68,2.57-1s1.47-.59,2.2-.9l2.55-1.09c.73-.32,1.46-.63,2.18-1s1.68-.76,2.52-1.15l2.16-1,2.5-1.22,2.12-1c.83-.42,1.66-.86,2.48-1.29l2.09-1.1,2.46-1.36,2.06-1.15c.81-.46,1.62-.94,2.43-1.42l2-1.19,2.42-1.49,2-1.24,2.38-1.55c.65-.43,1.31-.85,2-1.29.8-.53,1.59-1.08,2.38-1.63L203,242l2.37-1.72,1.84-1.34,2.38-1.81c.58-.45,1.18-.9,1.76-1.36.81-.62,1.6-1.27,2.4-1.91l1.68-1.36c.82-.68,1.63-1.37,2.44-2.06.52-.44,1-.87,1.57-1.32.86-.75,1.72-1.51,2.57-2.28l1.36-1.21c1-.89,2-1.8,2.93-2.72.31-.29.63-.57.94-.87,1.28-1.22,2.54-2.45,3.8-3.7A212.8,212.8,0,0,0,286,124.34q2.09-7.55,3.61-15.25,1-5.15,1.79-10.35A216.6,216.6,0,0,0,293.68,67c0-.65,0-1.31,0-2a188,188,0,0,1,161,158.21l-2.69-.1c-.65,0-1.3-.06-1.95-.07-2.07-.06-4.14-.1-6.2-.1a212.51,212.51,0,0,0-151.26,62.65c-1.26,1.26-2.49,2.53-3.72,3.81-.4.42-.79.85-1.19,1.28-.81.86-1.62,1.73-2.42,2.6l-1.38,1.56c-.71.8-1.42,1.59-2.12,2.4-.49.56-1,1.14-1.44,1.71-.65.77-1.31,1.54-1.95,2.32-.5.6-1,1.22-1.47,1.83s-1.22,1.5-1.82,2.26-1,1.29-1.47,1.93-1.15,1.49-1.71,2.24-1,1.33-1.44,2-1.09,1.49-1.62,2.24-.95,1.37-1.42,2.05-1,1.49-1.54,2.25-.91,1.39-1.37,2.09-1,1.51-1.48,2.27-.88,1.42-1.32,2.13-.95,1.52-1.41,2.29-.85,1.44-1.27,2.17-.91,1.54-1.36,2.31-.81,1.47-1.21,2.2-.87,1.56-1.3,2.34l-1.17,2.24c-.41.79-.82,1.57-1.22,2.36s-.75,1.51-1.12,2.27-.78,1.58-1.16,2.38-.71,1.53-1.07,2.3-.74,1.59-1.09,2.39-.68,1.57-1,2.35-.69,1.6-1,2.41-.64,1.58-1,2.37-.65,1.61-1,2.43-.6,1.6-.9,2.4-.62,1.62-.91,2.44-.57,1.62-.85,2.43l-.85,2.46c-.27.82-.52,1.64-.78,2.45s-.54,1.66-.79,2.49-.49,1.64-.73,2.47-.49,1.67-.73,2.51-.44,1.66-.67,2.49-.45,1.68-.66,2.52-.41,1.68-.61,2.52-.41,1.69-.6,2.54-.37,1.69-.55,2.53-.37,1.7-.54,2.56-.33,1.7-.49,2.55-.33,1.71-.48,2.57-.29,1.71-.43,2.57-.28,1.73-.41,2.59-.25,1.72-.37,2.58-.24,1.74-.35,2.61-.21,1.73-.3,2.59-.21,1.75-.29,2.63-.17,1.73-.25,2.6-.15,1.76-.22,2.65-.12,1.74-.18,2.61-.12,1.77-.16,2.66-.08,1.75-.12,2.62-.07,1.78-.1,2.67,0,1.76-.05,2.64c0,.61,0,1.21,0,1.82C154.21,419.22,95.37,357.37,83.22,280.91ZM268.8,439.25c-4.3,0-8.62-.15-12.91-.44,0-.63,0-1.27,0-1.89C255.87,333.3,340.16,249,443.78,249c2.07,0,4.15,0,6.23.1l2.05.1c1.39.06,2.79.12,4.18.21l.46,0c0,.63,0,1.25,0,1.88C456.71,355,372.42,439.25,268.8,439.25Z"/></svg>