<svg id="Layer_1" data-name="Layer 1" xmlns="http://www.w3.org/2000/svg" viewBox="0 0 512 493.17"><path d="M126.64,475q-15.33,0-26.95-11.63T88.06,436.42V74q0-15.31,11.63-26.95t27-11.62H403.5q15.31,0,26.94,11.62T442.07,74V436.42q0,15.31-11.63,26.94T403.5,475Zm0-38.57H403.5V74H126.64Zm139-26.95q44.93,0,76.35-31.44t31.44-76.87q0-45.45-31.44-76.88t-76.87-31.44q-45.45,0-76.88,31.44t-31.44,76.88q0,44.91,31.7,76.61T265.59,409.47Zm-.52-54.42a57.85,57.85,0,0,1-21.67-4.23,58.7,58.7,0,0,1-18.49-11.62l77.67-77.67A40.47,40.47,0,0,1,315,278.7a62.11,62.11,0,0,1,4,22.46q0,23.77-15.06,38.83T265.07,355.05Zm-93-218.21a18.68,18.68,0,0,0,13.21-32.23A18.68,18.68,0,1,0,158.87,131,18.17,18.17,0,0,0,172.07,136.84Zm75,0a18.69,18.69,0,0,0,13.21-32.23A18.68,18.68,0,1,0,233.89,131,18.21,18.21,0,0,0,247.1,136.84ZM126.64,436.42v0Z"/></svg>