<svg id="Layer_1" data-name="Layer 1" xmlns="http://www.w3.org/2000/svg" viewBox="0 0 512 512"><path d="M396.25,239.77v-34h81.17v34ZM423,394.24,357.5,346.07l20.42-27.76L443.38,367ZM379.49,127.18,359.07,99.43,423,51.77,443.38,79Zm-265,246.12V288.47h-34q-14.13,0-23.56-9.69a32.24,32.24,0,0,1-9.43-23.3V190.54a32.23,32.23,0,0,1,9.43-23.3q9.42-9.69,23.56-9.69h89L277.38,92.62V353.4L169.51,288.47H148.56V373.3ZM308.8,294.75V151.27a108.52,108.52,0,0,1,23.3,31.42,93.23,93.23,0,0,1,0,80.64A108.52,108.52,0,0,1,308.8,294.75ZM81.53,191.59v62.84h96.88l64.93,38.75V152.84l-64.93,38.75Z"/></svg>