<svg id="Layer_1" data-name="Layer 1" xmlns="http://www.w3.org/2000/svg" viewBox="0 0 512 512"><path d="M305,321.38a16,16,0,0,0,12.61-5.87,13,13,0,0,0,2-3.59,12.23,12.23,0,0,0,.71-4.1V288.39h0V172.22c0-7.48-6.85-13.56-15.31-13.56H90.51c-8.47,0-15.32,6.08-15.32,13.56V348.5L84,342.62l13.5-9,10.33-6.86a33.33,33.33,0,0,1,18.39-5.42H305Z" fill="none"/><path d="M388.65,247.71H351v60.11a35.81,35.81,0,0,1-.47,5.79c-2,12.31-10.17,22.84-21.68,29A50.17,50.17,0,0,1,305,348.5H158.82v48.36c0,7.49,6.87,13.56,15.33,13.56H352.91a33.38,33.38,0,0,1,18.38,5.43L404,437.54V261.27C404,253.78,397.12,247.71,388.65,247.71Z" fill="none"/><path d="M388.65,220.59H351V172.22c0-22.46-20.58-40.68-46-40.68H90.51c-25.39,0-46,18.22-46,40.68V368.84c0,14,18,21.93,30.65,13.56l22.35-14.84,28.72-19.06h1.92v48.36c0,22.47,20.59,40.68,46,40.68H352.91L404,471.44c12.63,8.38,30.64.4,30.64-13.56V261.27C434.61,238.8,414,220.59,388.65,220.59ZM126.26,321.38a33.33,33.33,0,0,0-18.39,5.42l-10.33,6.86-13.5,9-8.85,5.88V172.22c0-7.48,6.85-13.56,15.32-13.56H305c8.46,0,15.31,6.08,15.31,13.56V288.39h0v19.43a12.23,12.23,0,0,1-.71,4.1,13,13,0,0,1-2,3.59A16,16,0,0,1,305,321.38H126.26ZM404,437.54l-32.68-21.69a33.38,33.38,0,0,0-18.38-5.43H174.15c-8.46,0-15.33-6.07-15.33-13.56V348.5H305a50.17,50.17,0,0,0,23.81-5.88c11.51-6.17,19.71-16.7,21.68-29a35.81,35.81,0,0,0,.47-5.79V247.71h37.67c8.47,0,15.32,6.07,15.32,13.56Z"/></svg>