<svg id="Layer_1" data-name="Layer 1" xmlns="http://www.w3.org/2000/svg" viewBox="0 0 512 512"><rect x="71.66" y="81.12" width="141.53" height="141.53" rx="32" fill="none"/><rect x="71.66" y="301.93" width="141.53" height="141.53" rx="32.07" fill="none"/><circle cx="369.57" cy="372.7" r="70.77" fill="none"/><rect x="298.8" y="81.12" width="141.53" height="141.53" rx="32" fill="none"/><path d="M181.2,53.12H103.66a60.07,60.07,0,0,0-60,60v77.53a60.07,60.07,0,0,0,60,60H181.2a60.07,60.07,0,0,0,60-60V113.12A60.07,60.07,0,0,0,181.2,53.12ZM202.7,184.9a27.28,27.28,0,0,1-27.25,27.25h-66A27.28,27.28,0,0,1,82.16,184.9v-66a27.29,27.29,0,0,1,27.25-27.26h66a27.28,27.28,0,0,1,27.25,27.26Z"/><path d="M408.33,53.12H330.8a60.07,60.07,0,0,0-60,60v77.53a60.07,60.07,0,0,0,60,60h77.53a60.07,60.07,0,0,0,60-60V113.12A60.06,60.06,0,0,0,408.33,53.12ZM429.84,184.9a27.28,27.28,0,0,1-27.25,27.25h-66A27.28,27.28,0,0,1,309.3,184.9v-66a27.29,27.29,0,0,1,27.25-27.26h66a27.29,27.29,0,0,1,27.25,27.26Z"/><path d="M181.13,273.93h-77.4A60.14,60.14,0,0,0,43.66,334v77.4a60.14,60.14,0,0,0,60.07,60.07h77.4A60.14,60.14,0,0,0,241.2,411.4V334A60.14,60.14,0,0,0,181.13,273.93Zm21.55,131.72a27.34,27.34,0,0,1-27.3,27.3h-65.9a27.34,27.34,0,0,1-27.3-27.3v-65.9a27.34,27.34,0,0,1,27.3-27.3h65.9a27.34,27.34,0,0,1,27.3,27.3Z"/><path d="M369.57,273.93a98.77,98.77,0,1,0,98.76,98.77A98.88,98.88,0,0,0,369.57,273.93Zm0,159a60.25,60.25,0,1,1,60.25-60.25A60.32,60.32,0,0,1,369.57,433Z"/></svg>