<svg id="Layer_1" data-name="Layer 1" xmlns="http://www.w3.org/2000/svg" viewBox="0 0 512 512"><g id="页面-1"><g id="Business"><g id="shopping_cart_2_line" data-name="shopping cart 2 line"><rect id="矩形" x="49.15" y="31.48" width="470.49" height="470.49" fill="none"/><path id="形状" d="M366.21,416.37a26.79,26.79,0,1,1-26.79,26.79A26.78,26.78,0,0,1,366.21,416.37Zm-130.38,0A26.79,26.79,0,1,1,209,443.16,26.79,26.79,0,0,1,235.83,416.37ZM117.66,83.06l2.06,1.35,33.48,25.11A39.19,39.19,0,0,1,166,126.15l1.18,3.35H419a39.21,39.21,0,0,1,39.16,41.16l-.26,2.91-9,71.66a98,98,0,0,1-84.68,85l-4.44.47L216.49,342.7l5.08,22H392.22a19.61,19.61,0,0,1,2.28,39.08l-2.28.13H221.57a39.22,39.22,0,0,1-37.36-27.31l-.84-3.08L129.68,140.88,96.2,115.78A19.61,19.61,0,0,1,115.5,82ZM419,168.7H176.33l31.25,135.4,149-12.42a58.82,58.82,0,0,0,53.47-51.31Z"/></g></g></g></svg>