<svg id="Layer_1" data-name="Layer 1" xmlns="http://www.w3.org/2000/svg" viewBox="0 0 512 512"><polygon points="131.38 119.71 63.68 93.11 74.49 165.04 131.38 119.71" fill="none"/><polygon points="237.06 132.46 164.63 125.71 195 191.81 237.06 132.46" fill="none"/><polygon points="134.35 325.59 186.93 275.31 117.1 254.92 134.35 325.59" fill="none"/><polygon points="248.82 340.5 284.4 277.05 211.66 277.96 248.82 340.5" fill="none"/><polygon points="360.04 323.21 376.05 252.25 306.59 273.86 360.04 323.21" fill="none"/><polygon points="434.96 90.87 366.43 115.29 421.85 162.42 434.96 90.87" fill="none"/><polygon points="342.65 125.29 306.59 130.07 270.54 134.85 314.88 192.52 342.65 125.29" fill="none"/><path d="M130.15,393.5l19.78,7.78-1.26-2.75Q139.14,396.17,130.15,393.5Z" fill="none"/><polygon points="314.88 474.4 342.65 407.17 270.54 416.73 314.88 474.4" fill="none"/><polygon points="421.85 441.75 434.96 370.19 366.43 394.62 421.85 441.75" fill="none"/><path d="M159.66,403.29,190,469.39l41.81-59a413.35,413.35,0,0,1-49.59-5Z" fill="none"/><polygon points="78.68 449.56 135.57 404.23 67.87 377.62 78.68 449.56" fill="none"/><path d="M475.68,259.28l-11.46-15.64-3.8,2.79c-40.35,29.65-95.37,70.1-217.8,70.1l-5.35,0c-108.67-1-155.46-32.66-196.75-60.57q-3.17-2.15-6.28-4.23L23.43,267.8l6.23,4.2c11.83,8,24.49,16.55,39.21,24.72l-3-.88L96.65,422l90.64-86.67,63.45,106.79,59.68-106.43,90,83.13,28.59-126.73-3.62,1.13c18.17-10.41,33.09-21.37,46.47-31.2ZM102.45,402.18l-22.3-91.39,90.3,26.38Zm148,19.29-48-80.88,94.06-1.18ZM394.31,399.1l-69.12-63.81,89.82-28Z"/><path d="M57.92,232.16l87.76-69.93q4.26,1.1,8.63,2.11L200,263.8,261.56,177h1.08q5.25,0,10.42-.12l67.43,87.7,42.62-103.18,2.16-.57,80.66,68.6,19.8-108.07c6.34-3.35,12.33-6.69,17.92-10l-8-13.75C446,126.64,365.54,161,262.64,161h-3.51C165.3,160.29,90.87,130.8,45,106.17l-7.53,14c1.3.7,2.64,1.4,4,2.11ZM474.73,130.81l-14.91,81.42L396.76,158.6ZM328.67,175.42l41-5.44-31.6,76.5-50.45-65.62Zm-79.11,2.72L201.7,245.68l-34.56-75.22ZM129.31,163.63,64.57,215.21l-12.3-81.85Z"/></svg>