<svg id="Layer_1" data-name="Layer 1" xmlns="http://www.w3.org/2000/svg" viewBox="0 0 512 512"><path id="形状" d="M358.13,296.91A117.59,117.59,0,0,1,475.61,409.4l.11,5.1v47a23.52,23.52,0,0,1-46.88,2.74l-.15-2.74v-47a70.55,70.55,0,0,0-66.41-70.43l-4.15-.12H170a70.55,70.55,0,0,0-70.43,66.41l-.12,4.14v47a23.52,23.52,0,0,1-46.88,2.74l-.16-2.74v-47A117.6,117.6,0,0,1,164.88,297l5.1-.11ZM264.06,14.69A117.59,117.59,0,1,1,146.47,132.28,117.59,117.59,0,0,1,264.06,14.69Zm0,47a70.56,70.56,0,1,0,70.55,70.55A70.55,70.55,0,0,0,264.06,61.73Z" fill-rule="evenodd"/></svg>