<svg id="Layer_1" data-name="Layer 1" xmlns="http://www.w3.org/2000/svg" viewBox="0 0 512 512"><path d="M395,66.56q-35.3,0-60.19,24.76T310,151.64q0,35.31,24.89,60.2T395,236.73q35.57,0,60.32-24.89t24.76-60.2q0-35.55-24.76-60.32T395,66.56Z" fill="none"/><path d="M420.57,301.52H354.74q0-20.38-8.36-30.83A44.48,44.48,0,0,0,326,256.06L195.4,207.48H49.11V389.81H144.2V361.6l164.57,47.54L462.89,361.6v-7.84q0-24-11.5-38.14T420.57,301.52ZM119.64,366.3h-47V231h47Zm182.55,12.91-155.32-44.7V236.36h45.45l120.86,44.22a15,15,0,0,1,8.49,8.26A33.07,33.07,0,0,1,324.16,302q-24.46,0-36.2-1.46a127.29,127.29,0,0,1-23.73-5.35L227.78,283l-9,21.86,41,12.15a145,145,0,0,0,23.72,5.34,186.64,186.64,0,0,0,27.22,1.95H411.06a14.75,14.75,0,0,1,10.74,4.13Q426,332.57,428,341.8Z"/><rect x="72.62" y="230.99" width="47.02" height="135.31" fill="#fff"/><path d="M483.93,114.06a97.46,97.46,0,0,0-51.3-51.31,95.89,95.89,0,0,0-74.92,0A99.74,99.74,0,0,0,327,83.45a97,97,0,0,0-20.83,30.61,95.89,95.89,0,0,0,0,74.92,98.37,98.37,0,0,0,51.56,51.55,95.89,95.89,0,0,0,74.92,0,96.92,96.92,0,0,0,30.6-20.82A99.86,99.86,0,0,0,483.93,189a95.89,95.89,0,0,0,0-74.92Zm-32.77,93.58q-23,23.15-56.12,23.15-32.84,0-56-23.15t-23.16-56q0-33.07,23.16-56.11t56-23q33.07,0,56.12,23t23,56.11Q474.19,184.49,451.16,207.64Z"/><text transform="translate(360.66 207.48)" font-size="155" font-family="Roboto-Regular, Roboto">₹</text></svg>