<svg id="Layer_1" data-name="Layer 1" xmlns="http://www.w3.org/2000/svg" viewBox="0 0 512 493.17"><path d="M239.46,111.17c-88,0-159.56,71.57-159.56,159.55s71.58,159.55,159.56,159.55S399,358.7,399,270.72,327.44,111.17,239.46,111.17Zm21,268.24a21,21,0,1,1-42,0V265a21,21,0,1,1,42,0Zm-21-159.72a21,21,0,1,1,21-21.05A21.05,21.05,0,0,1,239.46,219.69Z" fill="none"/><path d="M239.46,69.17C128.32,69.17,37.9,159.58,37.9,270.72s90.42,201.55,201.56,201.55S441,381.86,441,270.72,350.59,69.17,239.46,69.17Zm0,361.1c-88,0-159.56-71.57-159.56-159.55s71.58-159.55,159.56-159.55S399,182.74,399,270.72,327.44,430.27,239.46,430.27Z"/><path d="M239.46,244a21,21,0,0,0-21,21V379.41a21,21,0,1,0,42,0V265A21,21,0,0,0,239.46,244Z"/><circle cx="239.46" cy="198.64" r="21.04" fill="#1d1d1b"/></svg>