<svg id="Layer_1" data-name="Layer 1" xmlns="http://www.w3.org/2000/svg" viewBox="0 0 512 512"><polygon points="443.86 128.4 421 103.31 296.08 217.17 288.81 244.9 319.28 241.94 443.86 128.4" fill="none"/><path d="M438.55,199.38a12.5,12.5,0,0,0-12.5,12.5V371.05a24.71,24.71,0,0,1-24.69,24.68H87.66A24.71,24.71,0,0,1,63,371.05V169.77a24.71,24.71,0,0,1,24.68-24.68H298.47a12.5,12.5,0,0,0,0-25H87.66A49.74,49.74,0,0,0,38,169.77V371.05a49.73,49.73,0,0,0,49.68,49.68h313.7a49.74,49.74,0,0,0,49.69-49.68V211.88A12.5,12.5,0,0,0,438.55,199.38Z"/><path d="M255.53,273.25,330,266,479.18,130,422.64,68,273.77,203.67Zm40.55-56.08L421,103.31l22.86,25.09L319.28,241.94l-30.47,3Z"/><path d="M226.38,207.65a12.5,12.5,0,0,0,0-25H120.29a12.5,12.5,0,1,0,0,25Z"/><path d="M120.29,282.91H235.45a12.5,12.5,0,0,0,0-25H120.29a12.5,12.5,0,0,0,0,25Z"/><path d="M120.29,360.89H387.77a12.5,12.5,0,0,0,0-25H120.29a12.5,12.5,0,0,0,0,25Z"/></svg>