<svg id="Layer_1" data-name="Layer 1" xmlns="http://www.w3.org/2000/svg" viewBox="0 0 512 512"><path d="M206.58,287.35c.55,6.59,5.2,12.08,11.06,14.82.42.2.79-.42.37-.63-5.66-2.79-10.37-7.79-11.29-14.2,0-.08-.14-.06-.14,0Z" stroke="#1d1d1b" stroke-miterlimit="10" stroke-width="3"/><path d="M346.5,328.2q69.92.65,139.83.3c6.61,0,13-.25,19.85-.26v-.76c-47,.06-93.22-.46-139.82.17-6.62.09-13.24.21-19.85.29a.13.13,0,0,0,0,.26Z" stroke="#1d1d1b" stroke-miterlimit="10" stroke-width="3"/><path d="M169.61,328.71q-69.9-1.08-139.82-1.16c-6.62,0-13.24.17-19.85.13a.39.39,0,0,0,0,.77c46.6.22,93.21,1,139.82.68,6.61-.05,13.23-.12,19.85-.16a.13.13,0,0,0,0-.26Z" stroke="#1d1d1b" stroke-miterlimit="10" stroke-width="3"/><path d="M20.82,186.13A3.83,3.83,0,1,0,24.28,193a.4.4,0,0,0-.3-.72A3.58,3.58,0,0,1,19.75,191a3.52,3.52,0,0,1,1.21-4.6.13.13,0,0,0-.14-.23Z" stroke="#1d1d1b" stroke-miterlimit="10" stroke-width="3"/><path d="M172,190.89a3.35,3.35,0,0,0,4.07,2.33,5.27,5.27,0,0,0,3.67-4.65c0-.48-.74-.72-.94-.26-.59,1.32-1,2.75-2.36,3.49a2.8,2.8,0,0,1-3.89-1.14c-.14-.32-.62-.09-.55.23Z" stroke="#1d1d1b" stroke-miterlimit="10" stroke-width="3"/><path d="M77.83,230.51c4.55,1.73,10.53,3.53,15.43,3.49a.51.51,0,0,0,.13-1,56.48,56.48,0,0,0-7.68-1.56c-2.57-.51-5.12-1.14-7.72-1.54a.31.31,0,0,0-.16.6Z" stroke="#1d1d1b" stroke-miterlimit="10" stroke-width="3"/><path d="M56.45,156.61c-6.2-.12-12.39-.16-18.58.23a.35.35,0,0,0,0,.69c6.2.18,12.39-.06,18.58-.39a.27.27,0,0,0,0-.53Z" stroke="#1d1d1b" stroke-miterlimit="10" stroke-width="3"/><path d="M144.5,156.31c-5.7-.07-11.6-.68-17.28-.34-.45,0-.61.75-.12.82,5.61.86,11.77.38,17.4,0a.25.25,0,0,0,0-.49Z" stroke="#1d1d1b" stroke-miterlimit="10" stroke-width="3"/><path d="M261.91,79.4q-10.59-.18-21.2-.3a.53.53,0,0,0,0,1.05q10.6-.14,21.2-.3a.23.23,0,0,0,0-.45Z" stroke="#1d1d1b" stroke-miterlimit="10" stroke-width="3"/><path d="M424.32,156.7c-7.06-.13-14.13-.22-21.19-.31a.53.53,0,0,0,0,1.05q10.59-.13,21.19-.3a.22.22,0,0,0,0-.44Z" stroke="#1d1d1b" stroke-miterlimit="10" stroke-width="3"/><path d="M56.45,352.29c-6.2-.13-12.39-.16-18.58.22a.35.35,0,0,0,0,.69c6.2.19,12.39-.05,18.58-.38a.27.27,0,0,0,0-.53Z" stroke="#1d1d1b" stroke-miterlimit="10" stroke-width="3"/><path d="M144.5,353c-5.7-.07-11.6-.69-17.28-.35-.45,0-.61.75-.12.83,5.61.86,11.77.38,17.4,0a.25.25,0,0,0,0-.49Z" stroke="#1d1d1b" stroke-miterlimit="10" stroke-width="3"/><path d="M424.32,355.31c-7.06-.13-14.13-.22-21.19-.31a.53.53,0,0,0,0,1.06q10.59-.13,21.19-.31a.22.22,0,0,0,0-.44Z" stroke="#1d1d1b" stroke-miterlimit="10" stroke-width="3"/><path d="M416.64,267.1a61.35,61.35,0,0,0-12.46,16.84c-.22.44.43.83.68.39A88.81,88.81,0,0,1,417,267.48a.27.27,0,0,0-.38-.38Z" stroke="#1d1d1b" stroke-miterlimit="10" stroke-width="3"/><path d="M430.86,264.7c-9.22,10.35-18.35,21.06-26.06,32.59-.33.49.43.89.76.45,8.47-11,16.69-22.05,25.83-32.51.31-.36-.21-.89-.53-.53Z" stroke="#1d1d1b" stroke-miterlimit="10" stroke-width="3"/><path d="M486.86,311.43a84,84,0,0,0,17.22-.28c.41-.06.31-.73-.1-.72-5.71.1-11.4.62-17.12.62a.19.19,0,0,0,0,.38Z" stroke="#1d1d1b" stroke-miterlimit="10" stroke-width="3"/><path d="M490.77,307.59a75.64,75.64,0,0,0,13.46,0,.46.46,0,0,0,0-.91,76.66,76.66,0,0,0-13.46.53.17.17,0,0,0,0,.34Z" stroke="#1d1d1b" stroke-miterlimit="10" stroke-width="3"/><path d="M367.82,368.41c-19.11-.27-37.75.06-57.31.06V369c19.56,0,38.2.33,57.31.06a.32.32,0,0,0,0-.64Z" stroke="#1d1d1b" stroke-miterlimit="10" stroke-width="3"/><path d="M367.82,371.34c-22.37-.27-44.6.07-67.1.07v.52c22.5,0,44.73.33,67.1.06a.33.33,0,0,0,0-.65Z" stroke="#1d1d1b" stroke-miterlimit="10" stroke-width="3"/><path d="M186.45,369.05c19.12.27,38-.06,57.52-.06v-.52c-19.56,0-38.3-.33-57.41-.06-.42,0-.52.64-.11.64Z" stroke="#1d1d1b" stroke-miterlimit="10" stroke-width="3"/><path d="M367.82,374.28c-19.11-.27-37.75.06-57.31.06v.52c19.56,0,38.2.33,57.31.06a.32.32,0,0,0,0-.64Z" stroke="#1d1d1b" stroke-miterlimit="10" stroke-width="3"/><path d="M186.45,374.92c19.12.27,38-.06,57.52-.06v-.52c-19.56,0-38.3-.33-57.41-.06-.42,0-.52.64-.11.64Z" stroke="#1d1d1b" stroke-miterlimit="10" stroke-width="3"/><path d="M367.82,477c-19.11-.27-37.75.06-57.31.06v.52c19.56,0,38.2.33,57.31.06a.32.32,0,0,0,0-.64Z" stroke="#1d1d1b" stroke-miterlimit="10" stroke-width="3"/><path d="M186.45,477.65c19.12.27,38-.06,57.52-.06v-.52c-19.56,0-38.3-.33-57.41-.06-.42,0-.52.64-.11.64Z" stroke="#1d1d1b" stroke-miterlimit="10" stroke-width="3"/><path d="M186.45,372c22.38.27,44.81-.06,67.31-.06v-.52c-22.5,0-44.83-.34-67.2-.07-.42,0-.52.64-.11.65Z" stroke="#1d1d1b" stroke-miterlimit="10" stroke-width="3"/><path d="M367.82,117.94c-22.37-.27-44.6.06-67.1.06v.52c22.5,0,44.73.33,67.1.06a.32.32,0,0,0,0-.64Z" stroke="#1d1d1b" stroke-miterlimit="10" stroke-width="3"/><path d="M367.82,119.7c-19.11-.27-37.75.06-57.31.06v.52c19.56,0,38.2.33,57.31.06a.32.32,0,0,0,0-.64Z" stroke="#1d1d1b" stroke-miterlimit="10" stroke-width="3"/><path d="M186.45,120.34c19.12.27,38-.06,57.52-.06v-.52c-19.56,0-38.3-.33-57.41-.06-.42,0-.52.63-.11.64Z" stroke="#1d1d1b" stroke-miterlimit="10" stroke-width="3"/><path d="M186.45,118.58c22.38.27,44.81-.06,67.31-.06V118c-22.5,0-44.83-.33-67.2-.06-.42,0-.52.64-.11.64Z" stroke="#1d1d1b" stroke-miterlimit="10" stroke-width="3"/><path d="M110.68,298.9a5.78,5.78,0,0,0-4-7.13c-.32-.08-.57.41-.24.56a5.88,5.88,0,0,1,3.75,6.44.23.23,0,0,0,.45.13Z" stroke="#1d1d1b" stroke-miterlimit="10" stroke-width="3"/><path d="M108.67,296.06a5.84,5.84,0,0,0-3.56-3.74c-.36-.13-.62.47-.26.63a5.88,5.88,0,0,1,3.36,3.24c.11.28.56.17.46-.13Z" stroke="#1d1d1b" stroke-miterlimit="10" stroke-width="3"/><path d="M107,300.81c2.94,1,6.84,1.83,9.57-.16a.41.41,0,0,0-.42-.71c-3.06,1.49-5.88,1-9.12.6-.16,0-.17.22,0,.27Z" stroke="#1d1d1b" stroke-miterlimit="10" stroke-width="3"/><path d="M105.87,306.84a26.45,26.45,0,0,0-.62,4,32.25,32.25,0,0,0-.43,4.59c0,.57.92.75,1,.14a27.76,27.76,0,0,0,.24-4.08,28.14,28.14,0,0,0,0-4.59.11.11,0,0,0-.21,0Z" stroke="#1d1d1b" stroke-miterlimit="10" stroke-width="3"/><path d="M108.71,313.49a20.21,20.21,0,0,0,5.48-.66.37.37,0,0,0-.2-.71c-1.75.33-3.5.69-5.28.86-.31,0-.33.51,0,.51Z" stroke="#1d1d1b" stroke-miterlimit="10" stroke-width="3"/><path d="M110.92,311.32a12.22,12.22,0,0,0,4.08-1c.35-.16.1-.75-.27-.63a26.4,26.4,0,0,1-3.89,1.08c-.31.05-.24.58.08.55Z" stroke="#1d1d1b" stroke-miterlimit="10" stroke-width="3"/><path d="M48.23,278.48c.14,1.23.29,2.45.43,3.67a.64.64,0,1,0,1.26-.17l-.64-3.64c-.1-.59-1.12-.46-1.05.14Z" stroke="#1d1d1b" stroke-miterlimit="10" stroke-width="3"/><path d="M325.17,99.82c13.92.55,27.84.36,41.75.5a.2.2,0,0,0,0-.4c-13.91-.14-27.82-.61-41.75-.36a.13.13,0,0,0,0,.26Z" stroke="#1d1d1b" stroke-miterlimit="10" stroke-width="3"/><path d="M228.81,99.54c-14.24-.28-28.86-.23-42.56-.23-1,0-1,.85,0,.85,13.7,0,28.41.06,42.64-.22.26,0,.17-.39-.08-.4Z" stroke="#1d1d1b" stroke-miterlimit="10" stroke-width="3"/><path d="M269.68,405.68c-6.9,7.88-14.09,15.48-21.16,23.21-.38.42.23,1,.63.62,7.29-7.5,14.14-15.47,20.93-23.43.24-.28-.16-.68-.4-.4Z" stroke="#1d1d1b" stroke-miterlimit="10" stroke-width="3"/><path d="M295.06,399.11c-15.81,16.9-31.21,34.5-44.77,53.28-.35.48.45,1.11.82.64,14.34-18.26,28.73-36.32,44.44-53.44.3-.32-.18-.81-.49-.48Z" stroke="#1d1d1b" stroke-miterlimit="10" stroke-width="3"/><path d="M304,424.39a18.31,18.31,0,0,0-4.62,6c-.21.43.43.82.66.38a19.56,19.56,0,0,1,4.51-5.79c.38-.33-.17-.87-.55-.55Z" stroke="#1d1d1b" stroke-miterlimit="10" stroke-width="3"/><path d="M255.84,301.13a36,36,0,0,0,10.26-.3c.4-.08.32-.76-.09-.72a93.61,93.61,0,0,1-10.17.62c-.26,0-.25.37,0,.4Z" stroke="#1d1d1b" stroke-miterlimit="10" stroke-width="3"/><path d="M257.44,298.55a46.46,46.46,0,0,0,11.05-.49c.32-.06.25-.63-.08-.59a66,66,0,0,1-11,.5c-.37,0-.37.56,0,.58Z" stroke="#1d1d1b" stroke-miterlimit="10" stroke-width="3"/><path d="M261.19,294.05c3.3-.2,6.61-.32,9.89-.7.41-.05.44-.68,0-.66-3.3.13-6.6.51-9.89.82-.34,0-.35.56,0,.54Z" stroke="#1d1d1b" stroke-miterlimit="10" stroke-width="3"/><path d="M263.32,289.69a38.83,38.83,0,0,0,9.2-.4c.48-.08.27-.81-.21-.73a51,51,0,0,1-9,.65c-.31,0-.31.46,0,.48Z" stroke="#1d1d1b" stroke-miterlimit="10" stroke-width="3"/><path d="M187,116.09q30.57,0,61.15,0,48.71,0,97.42-.07l22.3,0a1.21,1.21,0,0,0,0-2.41l-61.15.12c-32.47.06-64.94.25-97.42.38l-22.3.09a1,1,0,0,0,0,1.93Z" stroke="#1d1d1b" stroke-miterlimit="10" stroke-width="3"/><path d="M187,366.55H248.1q48.71,0,97.42-.07l22.3,0a1.21,1.21,0,0,0,0-2.42l-61.15.12c-32.47.06-64.94.26-97.42.39l-22.3.09a1,1,0,0,0,0,1.92Z" stroke="#1d1d1b" stroke-miterlimit="10" stroke-width="3"/><path d="M325.18,352.83l42.64-.08a1.21,1.21,0,0,0,0-2.41l-42.64.08a1.21,1.21,0,0,0,0,2.41Z" stroke="#1d1d1b" stroke-miterlimit="10" stroke-width="3"/><path d="M187,352.86c13.44,0,26.88.06,40.31,0a1.21,1.21,0,0,0,0-2.41c-13.44.09-26.87.35-40.31.51a1,1,0,0,0,0,1.93Z" stroke="#1d1d1b" stroke-miterlimit="10" stroke-width="3"/><path d="M187,482H248.1q48.71,0,97.42-.07l22.3,0a1.21,1.21,0,0,0,0-2.42l-61.15.12c-32.47.06-64.94.26-97.42.39l-22.3.09a1,1,0,0,0,0,1.92Z" stroke="#1d1d1b" stroke-miterlimit="10" stroke-width="3"/><path d="M361.76,378.94c-.12,27.34-.83,54.77-.16,82.11.09,3.81.07,8,.07,11.89,0,1,2,1,2,0,0-27.4.08-54.87,0-82.11,0-3.95,0-7.92-.05-11.87a.92.92,0,0,0-1.83,0Z" stroke="#1d1d1b" stroke-miterlimit="10" stroke-width="3"/><path d="M190.91,379.2c0,27.27-.68,54.58.06,81.84.1,3.81.09,8.41.1,11.82a1,1,0,0,0,2,0c-.07-26.77-.08-54.67-.27-81.84q0-5.91-.08-11.82a.92.92,0,0,0-1.83,0Z" stroke="#1d1d1b" stroke-miterlimit="10" stroke-width="3"/><path d="M109.69,250.35a67.07,67.07,0,0,1-.6,8.5c-.09.82,1.29,1,1.45.2a28.84,28.84,0,0,0,.19-8.7c-.07-.64-1-.68-1,0Z" stroke="#1d1d1b" stroke-miterlimit="10" stroke-width="3"/><path d="M113.9,251.13c-.07,3-.08,5.92-.08,8.88,0,.84,1.36.82,1.29,0-.26-3-.53-5.92-.85-8.88a.18.18,0,1,0-.36,0Z" stroke="#1d1d1b" stroke-miterlimit="10" stroke-width="3"/><path d="M118.2,251.14c.14,2.44.19,4.9.51,7.33.12,1,1.66,1,1.55,0-.26-2.5-.78-5-1.22-7.45-.08-.47-.86-.36-.84.12Z" stroke="#1d1d1b" stroke-miterlimit="10" stroke-width="3"/><path d="M115.76,206.25c.17-.36.34-.72.52-1.08.56-1.17-1.34-1.82-1.57-.66l-.24,1.2c-.15.73.92,1.31,1.29.54Z" stroke="#1d1d1b" stroke-miterlimit="10" stroke-width="3"/><path d="M149.35,204.66a2.44,2.44,0,0,0-.35-.43.76.76,0,0,0-1.08,1.08,2.44,2.44,0,0,0,.43.35c.59.4,1.41-.41,1-1Z" stroke="#1d1d1b" stroke-miterlimit="10" stroke-width="3"/><path d="M144.2,255.37a4.25,4.25,0,0,1,4.63-3.38c.48.06.52-.66.11-.81a4.44,4.44,0,0,0-5.72,4.19c0,.65.91.61,1,0Z" stroke="#1d1d1b" stroke-miterlimit="10" stroke-width="3"/><path d="M215.09,304c16.1,1.48,33.13,2.61,49.19.14,1-.15.76-1.82-.24-1.74a446.57,446.57,0,0,1-49,1.18c-.28,0-.27.4,0,.42Z" stroke="#1d1d1b" stroke-miterlimit="10" stroke-width="3"/><path d="M475.24,246.93q.12,17.47.25,35,.06,8.26,0,16.52c0,5.51-.75,11.39.2,16.82a1.15,1.15,0,0,0,2.21,0c1-5.09.46-10.68.44-15.85q0-8.75-.2-17.49-.31-17.5-1.62-35a.64.64,0,0,0-1.28,0Z" stroke="#1d1d1b" stroke-miterlimit="10" stroke-width="3"/><path d="M487.72,273.59c-.29,4.1-.74,8.38-.31,12.48a.51.51,0,0,0,1,0c.21-4.13-.29-8.35-.43-12.48a.14.14,0,1,0-.27,0Z" stroke="#1d1d1b" stroke-miterlimit="10" stroke-width="3"/><path d="M491.07,271.88c-.26,5-.83,10.14-.65,15.16a.89.89,0,0,0,1.78,0c.66-5,.2-10.2-.31-15.16a.41.41,0,0,0-.82,0Z" stroke="#1d1d1b" stroke-miterlimit="10" stroke-width="3"/><path d="M482.21,277c.86,1.16,2.42.92,3.74.94a64.7,64.7,0,0,0,8,0,.69.69,0,0,0,0-1.37,43.53,43.53,0,0,0-5.48-.07c-1,0-4.68.62-5.44-.09-.41-.38-1.19.14-.82.63Z" stroke="#1d1d1b" stroke-miterlimit="10" stroke-width="3"/><path d="M483.22,280.88a3.08,3.08,0,0,0-.79-.27c-.75-.17-1.05,1-.31,1.15a90.42,90.42,0,0,0,12.32.52c.65,0,.83-1,.16-1.17a33.42,33.42,0,0,0-12.48-.5l.73.73.35-.32c.06,0,.09-.11,0-.14Z" stroke="#1d1d1b" stroke-miterlimit="10" stroke-width="3"/><path d="M482.44,293.58c-1.94.18-1.49,2.55-.26,3.39,1.67,1.12,4.62,1.73,6.4.55s1.18-3.13-.39-4-5.2-2-6.76-.38a1.08,1.08,0,0,0,.76,1.83,23.78,23.78,0,0,1,2.95-.38c.38,0,3.33.19,2.63,1.28-.57.89-5.46-.56-4.92-1.54a.48.48,0,0,0-.41-.71Z" stroke="#1d1d1b" stroke-miterlimit="10" stroke-width="3"/><path d="M494.26,293a4,4,0,0,0-2.84,2,1,1,0,0,0,.36,1.35c1.9,1.4,6.33,1.66,7.39-1,1.18-3-4.07-4.12-5.92-3.08a.89.89,0,0,0,.21,1.6,6.3,6.3,0,0,0,2.08.21c.53,0,2.34.16,1.37.92s-3.09.12-4.14-.37c.15.38.31.75.46,1.12a1.9,1.9,0,0,1,1.36-1.57.61.61,0,0,0-.33-1.17Z" stroke="#1d1d1b" stroke-miterlimit="10" stroke-width="3"/><path d="M9.37,12.77q24.56.25,49.12.34,59.23.27,118.47.24c47.62,0,95.24.31,142.86.22,41.28-.08,82.57.06,123.86-.34,19.95-.19,39.89-.64,59.85-.44a7.17,7.17,0,0,0,.82,0c2.6,0,2.6-4,0-4-.65,0-1.8.08-3.41.14-3.26.11-6.53.08-9.79.09-12,.05-23.95-.17-35.92-.31-39.49-.44-79-.07-118.47,0-47.62.09-95.24.55-142.86.74-41.29.17-82.57.32-123.86.67-13.54.11-27.08.19-40.62.34-6.09.07-13.2-.81-19.23.28a7.48,7.48,0,0,1-.82,0,1,1,0,0,0,0,2Z" stroke="#1d1d1b" stroke-miterlimit="10" stroke-width="3"/><path d="M367.82,174.92c40.14-.08,80.28-.83,120.42-.84,5.69,0,11.39.18,17.09.17,2.59,0,2.6-4,0-4-40.13.07-80.27-.25-120.41-.17l-17.1,0c-3.1,0-3.11,4.84,0,4.84Z" stroke="#1d1d1b" stroke-miterlimit="10" stroke-width="3"/><path d="M187,96.5q30.57,0,61.15.14,48.71.12,97.42,0l22.3,0c3.11,0,3.12-4.83,0-4.83l-61.15.12c-32.47.06-65,.38-97.42.59l-22.3.13c-2.48,0-2.49,3.85,0,3.85Z" stroke="#1d1d1b" stroke-miterlimit="10" stroke-width="3"/><path d="M184.23,126.83q31.44,0,62.87.14,50.16.12,100.3,0l23.14,0c3.11,0,3.11-4.83,0-4.83l-62.87.12c-33.43.06-66.87.38-100.3.59l-23.14.13c-2.48,0-2.48,3.85,0,3.85Z" stroke="#1d1d1b" stroke-miterlimit="10" stroke-width="3"/><path d="M184,381.21q31.29,0,62.59.14,50.14.12,100.3,0l22.88,0c3.11,0,3.11-4.83,0-4.83l-62.59.12c-33.43.06-66.86.38-100.29.59l-22.89.13c-2.48,0-2.48,3.85,0,3.85Z" stroke="#1d1d1b" stroke-miterlimit="10" stroke-width="3"/><path d="M192.34,318.6q28.82,0,57.63.14,45.66.12,91.33,0l21.13,0c3.11,0,3.11-4.84,0-4.83L304.8,314c-30.44.07-60.89.39-91.33.59l-21.13.13a1.93,1.93,0,0,0,0,3.86Z" stroke="#1d1d1b" stroke-miterlimit="10" stroke-width="3"/><path d="M187,475.14q30.57,0,61.15.14,48.71.12,97.42,0l22.3,0c3.11,0,3.12-4.84,0-4.83l-61.15.12c-32.47.06-65,.38-97.42.58l-22.3.14a1.93,1.93,0,0,0,0,3.85Z" stroke="#1d1d1b" stroke-miterlimit="10" stroke-width="3"/><path d="M9.37,174.2c20,.21,40,.3,60,.39q47.81.22,95.62.21c7.33,0,14.65,0,22,0,2.52,0,2.52-3.91,0-3.91-20,0-40,.17-60,.26-31.88.13-63.75.46-95.63.73-7.32.06-14.64.19-22,.3a1,1,0,0,0,0,2Z" stroke="#1d1d1b" stroke-miterlimit="10" stroke-width="3"/><path d="M27.68,188.87c41.1.55,82.21.58,123.32.6,5.88,0,11.76,0,17.64,0,2.52,0,2.52-3.92,0-3.91-41.11.1-82.22.55-123.32,1-5.88.06-11.76.2-17.64.31a1,1,0,0,0,0,2Z" stroke="#1d1d1b" stroke-miterlimit="10" stroke-width="3"/><path d="M168.64,191.41c-41.1-.55-82.22-.58-123.32-.6-5.88,0-11.76,0-17.64,0-2.52,0-2.53,3.92,0,3.91,41.11-.1,82.21-.54,123.32-1,5.88-.06,11.76-.2,17.64-.31a1,1,0,0,0,0-2Z" stroke="#1d1d1b" stroke-miterlimit="10" stroke-width="3"/><path d="M124.93,161.48c12.13.63,24.32.72,36.47.61,2.51,0,2.52-3.94,0-3.92-12.15.12-24.35.44-36.47,1.29a1,1,0,0,0,0,2Z" stroke="#1d1d1b" stroke-miterlimit="10" stroke-width="3"/><path d="M161.4,151.63c-12.12-.85-24.32-1.17-36.47-1.29-2.52,0-2.52,3.89,0,3.92,12.14.11,24.34,0,36.47-.61a1,1,0,0,0,0-2Z" stroke="#1d1d1b" stroke-miterlimit="10" stroke-width="3"/><path d="M504.76,10.8c-.69,18.25-.79,36.51-.9,54.77-.18,28.77-1.09,57.58-.41,86.35.12,4.86.47,9.72.51,14.59,0,1.4,0,3,0,4.4-.06,1.2-.16.68-.16,1.66,0,2,4,2,4,0,0-1-.2-3.22-.2-4.77,0-3.94.25-8,.39-11.91.47-12.77.21-25.62.21-38.39q0-43.17-.88-86.38c-.14-6.77-.27-13.54-.53-20.3a1,1,0,0,0-2,0Z" stroke="#1d1d1b" stroke-miterlimit="10" stroke-width="3"/><path d="M8.49,11.78C7.89,29.85,7.88,47.93,7.86,66c0,28.79-.79,57.62,0,86.41.14,4.8.53,9.61.58,14.42,0,1.28,0,2.59,0,3.87s-.17.89-.17,1.5c0,2.6,4,2.6,4,0,0-.33-.21-2.79-.23-4.28,0-3.89.19-7.77.32-11.66.43-12.75.09-25.53,0-38.28q-.23-43.2-1.34-86.41c-.17-6.6-.33-13.2-.62-19.8a1,1,0,0,0-2,0Z" stroke="#1d1d1b" stroke-miterlimit="10" stroke-width="3"/><path d="M9.37,334.67q24.56.25,49.12.34,59.23.27,118.47.23c47.62,0,95.24.32,142.86.23,41.28-.08,82.58,0,123.86-.35,19.95-.19,39.89-.65,59.85-.44a7.17,7.17,0,0,0,.82,0c2.6,0,2.6-4,0-4-.65,0-1.8.08-3.41.14-3.26.11-6.53.08-9.79.09-12,.05-23.95-.17-35.92-.31-39.49-.44-79-.07-118.47,0-47.62.09-95.24.56-142.86.75-41.29.16-82.57.31-123.86.67-13.54.11-27.08.19-40.62.34-6.09.07-13.2-.81-19.23.28a7.48,7.48,0,0,1-.82,0,1,1,0,0,0,0,2Z" stroke="#1d1d1b" stroke-miterlimit="10" stroke-width="3"/><path d="M506.48,333c.7-2.93,1.51-8.61-1.46-10.7-1.63-1.15-4.48-.61-6.32-.63q-6.26-.07-12.51-.11l-52.57-.34c-33.84-.21-67.68-.22-101.51-.29-69.2-.14-138.39-.47-207.58-.47-19.36,0-38.72,0-58.07.14-19,.17-38.08.95-57.09.26-2.6-.1-2.6,4.13,0,4,32.27-1.17,64.74.4,97,.4h97.51c66,0,132-.49,198-.63,18.33,0,36.67-.18,55-.3l27.31-.18c4.53,0,9,0,13.58-.11,2.38,0,5.65-.62,6.89,2.14.69,1.56.17,4.67-.16,6.26-.27,1.26,1.64,1.8,1.94.53Z" stroke="#1d1d1b" stroke-miterlimit="10" stroke-width="3"/><path d="M9.37,508q24.8.25,49.59.34,59,.27,118.07.24c47.91,0,95.81.31,143.72.22,41.13-.08,82.28.05,123.41-.34,20.12-.2,40.23-.65,60.35-.45a7,7,0,0,0,.82,0c2.59,0,2.6-4,0-4-.65,0-1.79.07-3.41.13-3.3.11-6.61.08-9.92.09-12.09.05-24.18-.17-36.27-.31-39.35-.44-78.71-.06-118.06,0-47.91.09-95.81.55-143.72.74-41.14.17-82.27.32-123.41.67-13.66.11-27.31.2-41,.35-6.14.06-13.31-.83-19.38.27a4.49,4.49,0,0,1-.82,0,1,1,0,0,0,0,2Z" stroke="#1d1d1b" stroke-miterlimit="10" stroke-width="3"/><path d="M504.76,332.69c-.68,19.43-.78,38.87-.9,58.31-.18,31.17-1.1,62.38-.4,93.56.11,5.18.48,10.36.5,15.54,0,1.44,0,3,0,4.42-.05,1.17-.16.7-.16,1.68,0,2,4,2,4,0,0-1-.06-.15-.13-1.29s-.06-2.34-.07-3.49c0-4.21.23-8.45.38-12.66.49-13.66.22-27.36.22-41q0-46.77-.89-93.57c-.13-7.16-.27-14.31-.52-21.46a1,1,0,0,0-2,0Z" stroke="#1d1d1b" stroke-miterlimit="10" stroke-width="3"/><path d="M8.49,333.68c-.6,19.44-.61,38.89-.63,58.33,0,30.83-.79,61.7,0,92.52.14,5.19.52,10.37.58,15.56,0,1.44,0,2.9,0,4.34-.05,1.16-.16,1.13-.16,1.59,0,2.6,4,2.6,4,0,0-.76-.06-.06-.14-1.2s-.07-2.3-.09-3.45c0-4.12.18-8.23.32-12.35.44-13.76.09-27.56,0-41.33q-.23-46.24-1.33-92.52c-.17-7.16-.34-14.33-.63-21.49a1,1,0,0,0-2,0Z" stroke="#1d1d1b" stroke-miterlimit="10" stroke-width="3"/><path d="M365.41,124.63s-.06,15.81,0,23.79c0,5.37.34,10.83.54,16.2.09,2.4-.14,6-.14,7.95s4,2,4,0c0-1-.15-1.1-.19-2.13-.06-1.84,0-3.78,0-5.62.18-5.49.52-10.86.56-16.35.06-8,0-16,0-23.84,0-2.93-4.83-2.93-4.83,0Z" stroke="#1d1d1b" stroke-miterlimit="10" stroke-width="3"/><path d="M366.81,10.8c-1.17,32.84-1.25,65.77-1.4,98.62,0,5.72,1.3,10,3,15.56.91,3,5.57,1.7,4.66-1.28-.54-1.75-1.07-3.49-1.61-5.23l-1-3.15c-.12-.38-.43-1.7-.28-.59a31.56,31.56,0,0,1,0-4c0-7.53-.17-15.07-.27-22.61-.27-20.72-.32-41.43-.73-62.14q-.15-7.59-.41-15.17a1,1,0,0,0-2,0Z" stroke="#1d1d1b" stroke-miterlimit="10" stroke-width="3"/><path d="M501.82,244c-37.32-.24-74.66.21-112-.13-5.25,0-10.5-.28-15.75-.31-2.59,0-2.6,4,0,4,37.32.25,74.65.89,112,1.14l15.74.11c3.11,0,3.12-4.81,0-4.84Z" stroke="#1d1d1b" stroke-miterlimit="10" stroke-width="3"/><path d="M501.82,314.43c-37.32-.25-74.66.21-112-.14-5.25-.05-10.5-.28-15.75-.31-2.59,0-2.6,4,0,4,37.32.24,74.65.89,112,1.13l15.74.11c3.11,0,3.12-4.81,0-4.83Z" stroke="#1d1d1b" stroke-miterlimit="10" stroke-width="3"/><path d="M374.67,316.34c1-11.76.84-23.6,1.21-35.39.24-8,.36-16.11.19-24.14-.05-2.7-.44-5.16-.57-7.85a21.54,21.54,0,0,1,.18-3,2,2,0,1,0-4,0,20.53,20.53,0,0,1,.18,3c-.13,2.56-.51,5-.58,7.58-.2,8.15-.05,16.31.2,24.46.36,11.79.19,23.6,1.21,35.36a1,1,0,0,0,2,0Z" stroke="#1d1d1b" stroke-miterlimit="10" stroke-width="3"/><path d="M503.81,317.32c1-11.76.85-23.6,1.21-35.39.25-8,.37-16.11.2-24.14-.06-2.7-.45-5.16-.58-7.85a21.54,21.54,0,0,1,.18-3,2,2,0,1,0-4,0,19.18,19.18,0,0,1,.18,3c-.12,2.56-.51,5-.57,7.58-.2,8.15-.06,16.31.19,24.46.37,11.79.2,23.6,1.21,35.36a1,1,0,0,0,2,0Z" stroke="#1d1d1b" stroke-miterlimit="10" stroke-width="3"/><path d="M464,256.75c-25.48-.18-51,0-76.44-.14-2.6,0-2.6,4,0,4,25.47.18,51,.76,76.44.94,3.11,0,3.12-4.81,0-4.83Z" stroke="#1d1d1b" stroke-miterlimit="10" stroke-width="3"/><path d="M463,301.8c-24.83-.18-49.67,0-74.49-.14-2.6,0-2.6,4,0,4,24.82.18,49.65.76,74.49.94,3.11,0,3.11-4.8,0-4.83Z" stroke="#1d1d1b" stroke-miterlimit="10" stroke-width="3"/><path d="M388.28,304.16c1-7.58.88-15.27,1.24-22.9.25-5.15.4-10.39.2-15.55-.07-1.77-.47-3.48-.59-5.24-.14-1.91.19.16.19-1.8a2,2,0,1,0-4,0c0,2,.34,0,.21,1.62s-.52,3.36-.6,5.06c-.26,5.27-.07,10.65.19,15.92.36,7.62.22,15.32,1.24,22.89a1,1,0,0,0,1.95,0Z" stroke="#1d1d1b" stroke-miterlimit="10" stroke-width="3"/><path d="M465.57,304.79c1-7.58.88-15.27,1.25-22.9.25-5.16.4-10.4.19-15.56-.07-1.77-.46-3.3-.59-5.06s.2.33.2-1.62a2,2,0,1,0-4,0c0,2,.34-.19.21,1.44s-.51,3.27-.6,5c-.26,5.27-.06,10.6.19,15.87.37,7.62.22,15.29,1.25,22.87.13,1,1.81.94,1.94,0Z" stroke="#1d1d1b" stroke-miterlimit="10" stroke-width="3"/><path d="M184.41,125.32c0,7.81,0,15.63.06,23.44.06,7.44.44,17.17.46,23.45,0,2.6,4,2.6,4,0,0-.23-.15-1-.19-2-.07-1.77,0-3.55,0-5.31.16-5.38.5-10.75.51-16.13,0-7.81,0-15.63-.05-23.44,0-3.11-4.84-3.12-4.84,0Z" stroke="#1d1d1b" stroke-miterlimit="10" stroke-width="3"/><path d="M185.57,11.78c-1.09,32.3-1,64.68-1.18,97,0,2,.13,4,0,6,0,.13,0,.66,0,.09,0-.32-.34,1.49-.45,2l-1.44,6.83c-.64,3,4,4.32,4.66,1.28,1-4.62,2-8.85,2-13.53,0-7.42-.2-14.84-.31-22.26-.33-20.72-.41-41.44-.87-62.16-.12-5.09-.26-10.17-.45-15.25a1,1,0,0,0-2,0Z" stroke="#1d1d1b" stroke-miterlimit="10" stroke-width="3"/><path d="M96.54,11.78c-.65,18.07-.71,36.15-.78,54.23-.12,28.79-1,57.62-.21,86.41.13,4.8.5,9.61.54,14.42,0,1.28,0,2.59,0,3.87s-.17.89-.16,1.5c0,2.6,4,2.6,4,0,0-.33-.2-2.79-.21-4.28,0-3.89.21-7.77.35-11.66.46-12.75.16-25.53.13-38.28q-.09-43.2-1.08-86.41c-.15-6.6-.3-13.2-.56-19.8a1,1,0,0,0-2,0Z" stroke="#1d1d1b" stroke-miterlimit="10" stroke-width="3"/><path d="M366,378.94c-.24,37.05-1.65,74.32-.31,111.36.19,5.26.13,11,.13,15.9,0,2,4,2,4,0,0-37.18.16-74.35-.08-111.36,0-5.27-.07-10.59-.1-15.86,0-2.36-3.66-2.41-3.67,0Z" stroke="#1d1d1b" stroke-miterlimit="10" stroke-width="3"/><path d="M366.81,332.69c-.31,8.9-.44,17.81-.61,26.71-.13,7,1.34,13.19,2.73,20,.48,2.38,4.19,1.38,3.66-1-1.69-7.5-3-12.71-3.16-19.83-.16-8.64-.3-17.28-.6-25.92a1,1,0,0,0-2,0Z" stroke="#1d1d1b" stroke-miterlimit="10" stroke-width="3"/><path d="M184.84,379.29c-.14,36.95-1.49,74-.07,111,.2,5.25.15,10.82.16,15.77,0,2.6,4,2.6,4,0-.07-36.56,0-74.06-.32-111l-.13-15.77a1.84,1.84,0,0,0-3.67,0Z" stroke="#1d1d1b" stroke-miterlimit="10" stroke-width="3"/><path d="M185.57,333.68c-.28,8.53-.4,17.06-.54,25.58-.11,6.94-1.47,12.18-3.12,19.52-.53,2.39,3.18,3.39,3.66,1,1.35-6.73,2.82-12.91,2.68-19.75-.18-8.78-.33-17.57-.66-26.36a1,1,0,0,0-2,0Z" stroke="#1d1d1b" stroke-miterlimit="10" stroke-width="3"/><path d="M161.2,152.25a18.61,18.61,0,0,0-.35,6.09c.13,1,.1,3,1.54,3s1.28-2,1.25-3a18.52,18.52,0,0,0-1.32-6.1c-.18-.49-1-.62-1.12,0Z" stroke="#1d1d1b" stroke-miterlimit="10" stroke-width="3"/><path d="M125,160.65a18.72,18.72,0,0,1,.12-7.42c.29-1.33-1.83-1.84-2-.55a16.62,16.62,0,0,0,.77,8.27.58.58,0,0,0,1.12-.3Z" stroke="#1d1d1b" stroke-miterlimit="10" stroke-width="3"/><path d="M35.9,161.48c12.13.63,24.32.72,36.46.61,2.52,0,2.53-3.94,0-3.92-12.15.12-24.34.44-36.46,1.29a1,1,0,0,0,0,2Z" stroke="#1d1d1b" stroke-miterlimit="10" stroke-width="3"/><path d="M72.36,151.63c-12.12-.85-24.31-1.17-36.46-1.29-2.52,0-2.52,3.89,0,3.92,12.14.11,24.34,0,36.46-.61a1,1,0,0,0,0-2Z" stroke="#1d1d1b" stroke-miterlimit="10" stroke-width="3"/><path d="M72.16,152.25a19.17,19.17,0,0,0-.35,6.09c.14,1,.11,3,1.55,3s1.27-2,1.25-3a18.53,18.53,0,0,0-1.33-6.1c-.17-.49-1-.62-1.12,0Z" stroke="#1d1d1b" stroke-miterlimit="10" stroke-width="3"/><path d="M36,160.65a18.91,18.91,0,0,1,.11-7.42c.29-1.33-1.82-1.84-2-.55a16.51,16.51,0,0,0,.77,8.27.58.58,0,0,0,1.12-.3Z" stroke="#1d1d1b" stroke-miterlimit="10" stroke-width="3"/><path d="M124.93,350.33c12.12.86,24.32,1.18,36.47,1.29,2.52,0,2.52-3.89,0-3.91-12.15-.11-24.34,0-36.47.61a1,1,0,0,0,0,2Z" stroke="#1d1d1b" stroke-miterlimit="10" stroke-width="3"/><path d="M161.4,356.14c-12.13-.62-24.33-.72-36.47-.6-2.51,0-2.52,3.94,0,3.91,12.15-.11,24.35-.44,36.47-1.29a1,1,0,0,0,0-2Z" stroke="#1d1d1b" stroke-miterlimit="10" stroke-width="3"/><path d="M98.56,505.84c.73-19.21.87-38.44,1-57.67.24-30.45,1.22-60.94.59-91.4-.1-5.1-.45-10.2-.47-15.31,0-1.43,0-2.88.05-4.31.07-1.18.17-1,.17-1.52,0-2.6-4-2.6-4,0,0,.82.08,0,.12,1.13s.06,2.28.07,3.43c0,4.13-.25,8.26-.41,12.39-.52,13.56-.28,27.15-.31,40.72q-.09,45.68.7,91.4c.11,7.05.23,14.09.47,21.14a1,1,0,0,0,2,0Z" stroke="#1d1d1b" stroke-miterlimit="10" stroke-width="3"/><path d="M162.32,357.55a18.58,18.58,0,0,0,1.32-6.1c0-1,.26-3-1.25-3s-1.41,2-1.54,3a18.62,18.62,0,0,0,.35,6.09c.11.61.94.48,1.12,0Z" stroke="#1d1d1b" stroke-miterlimit="10" stroke-width="3"/><path d="M123.91,348.84a16.65,16.65,0,0,0-.77,8.28c.18,1.29,2.3.78,2-.55a18.91,18.91,0,0,1-.12-7.42.58.58,0,0,0-1.12-.31Z" stroke="#1d1d1b" stroke-miterlimit="10" stroke-width="3"/><path d="M35.9,350.33c12.12.86,24.31,1.18,36.46,1.29,2.52,0,2.52-3.89,0-3.91-12.14-.11-24.33,0-36.46.61a1,1,0,0,0,0,2Z" stroke="#1d1d1b" stroke-miterlimit="10" stroke-width="3"/><path d="M72.36,356.14c-12.12-.62-24.32-.72-36.46-.6-2.52,0-2.52,3.94,0,3.91,12.15-.11,24.34-.44,36.46-1.29a1,1,0,0,0,0-2Z" stroke="#1d1d1b" stroke-miterlimit="10" stroke-width="3"/><path d="M73.28,357.55a18.59,18.59,0,0,0,1.33-6.1c0-1,.26-3-1.25-3s-1.42,2-1.55,3a19.19,19.19,0,0,0,.35,6.09c.11.61.94.48,1.12,0Z" stroke="#1d1d1b" stroke-miterlimit="10" stroke-width="3"/><path d="M34.88,348.84a16.53,16.53,0,0,0-.77,8.28c.18,1.29,2.3.78,2-.55a18.91,18.91,0,0,1-.11-7.42.58.58,0,0,0-1.12-.31Z" stroke="#1d1d1b" stroke-miterlimit="10" stroke-width="3"/><path d="M398.88,161.48c25.19.63,50.41.72,75.6.61,2.52,0,2.52-3.93,0-3.92-25.2.12-50.42.44-75.6,1.29a1,1,0,0,0,0,2Z" stroke="#1d1d1b" stroke-miterlimit="10" stroke-width="3"/><path d="M474.48,151.63c-25.18-.85-50.4-1.17-75.6-1.29-2.52,0-2.52,3.91,0,3.92,25.19.11,50.41,0,75.6-.61a1,1,0,0,0,0-2Z" stroke="#1d1d1b" stroke-miterlimit="10" stroke-width="3"/><path d="M474.28,152.25a18.61,18.61,0,0,0-.35,6.09c.13,1,.1,3,1.55,3s1.27-2,1.25-3a18.79,18.79,0,0,0-1.33-6.1c-.18-.49-1-.62-1.12,0Z" stroke="#1d1d1b" stroke-miterlimit="10" stroke-width="3"/><path d="M399,160.65a18.91,18.91,0,0,1,.11-7.42c.3-1.33-1.82-1.84-2-.55a16.62,16.62,0,0,0,.77,8.27.58.58,0,0,0,1.12-.3Z" stroke="#1d1d1b" stroke-miterlimit="10" stroke-width="3"/><path d="M239.4,84.19c25.19.62,50.41.72,75.6.6,2.52,0,2.53-3.92,0-3.91-25.19.11-50.41.43-75.6,1.29a1,1,0,0,0,0,2Z" stroke="#1d1d1b" stroke-miterlimit="10" stroke-width="3"/><path d="M315,74.34c-25.18-.85-50.4-1.17-75.6-1.29-2.52,0-2.52,3.9,0,3.92,25.2.11,50.42,0,75.6-.61a1,1,0,0,0,0-2Z" stroke="#1d1d1b" stroke-miterlimit="10" stroke-width="3"/><path d="M314.8,75a19.12,19.12,0,0,0-.35,6.08c.13,1,.11,3,1.55,3s1.27-2,1.25-3a18.53,18.53,0,0,0-1.33-6.1c-.18-.49-1-.62-1.12,0Z" stroke="#1d1d1b" stroke-miterlimit="10" stroke-width="3"/><path d="M239.5,83.35a18.86,18.86,0,0,1,.12-7.41c.29-1.33-1.83-1.85-2-.55a16.62,16.62,0,0,0,.77,8.27.58.58,0,0,0,1.12-.31Z" stroke="#1d1d1b" stroke-miterlimit="10" stroke-width="3"/><path d="M398.88,360.09c25.19.63,50.41.72,75.6.61,2.52,0,2.52-3.93,0-3.92-25.2.12-50.42.44-75.6,1.29a1,1,0,0,0,0,2Z" stroke="#1d1d1b" stroke-miterlimit="10" stroke-width="3"/><path d="M474.48,350.25c-25.18-.86-50.4-1.18-75.6-1.29-2.52,0-2.52,3.9,0,3.91,25.19.11,50.41,0,75.6-.61a1,1,0,0,0,0-2Z" stroke="#1d1d1b" stroke-miterlimit="10" stroke-width="3"/><path d="M474.28,350.86a18.61,18.61,0,0,0-.35,6.09c.13,1,.1,3,1.55,3s1.27-2,1.25-3a18.79,18.79,0,0,0-1.33-6.1c-.18-.48-1-.62-1.12,0Z" stroke="#1d1d1b" stroke-miterlimit="10" stroke-width="3"/><path d="M399,359.26a18.91,18.91,0,0,1,.11-7.42c.3-1.33-1.82-1.84-2-.55a16.67,16.67,0,0,0,.77,8.28.58.58,0,0,0,1.12-.31Z" stroke="#1d1d1b" stroke-miterlimit="10" stroke-width="3"/><path d="M263.71,357.16c8.94.62,17.92.58,26.87.6,2.52,0,2.52-4,0-3.91-9,.25-17.94.44-26.87,1.29a1,1,0,0,0,0,2Z" stroke="#1d1d1b" stroke-miterlimit="10" stroke-width="3"/><path d="M290.58,347.31c-8.61-.53-17.26-.38-25.89-.31-2.52,0-2.51,4,0,3.91,8.64-.35,17.3-.63,25.89-1.58a1,1,0,0,0,0-2Z" stroke="#1d1d1b" stroke-miterlimit="10" stroke-width="3"/><path d="M290.15,347.92a18.57,18.57,0,0,0-.66,6.11c.08,1,0,3,1.45,3s1.32-2,1.34-3a18.73,18.73,0,0,0-1-6.11.59.59,0,0,0-1.12,0Z" stroke="#1d1d1b" stroke-miterlimit="10" stroke-width="3"/><path d="M264.13,356.48a73.39,73.39,0,0,1,.34-7.85c.14-1.31-2-1.36-2.08,0a40.46,40.46,0,0,0,.6,8c.11.66,1.14.49,1.14-.15Z" stroke="#1d1d1b" stroke-miterlimit="10" stroke-width="3"/><path d="M9.87,332.65l.33-5.83c.1-1.71.5-3.4-.38-4.92a1.29,1.29,0,0,0-2.22,0c-.79,1.61-.31,3.19-.1,4.92l.72,5.83a.83.83,0,0,0,1.65,0Z" stroke="#1d1d1b" stroke-miterlimit="10" stroke-width="3"/><path d="M301.86,349.22c-2.52,2.58-.83,6.94,1.94,8.61a5.86,5.86,0,0,0,8.8-3.95,6.88,6.88,0,0,0-5.36-7.87,5.28,5.28,0,0,0-5,1.81c-.81,1-1.93,3.09-1.05,4.32a1.56,1.56,0,0,0,1.69.69c1.46-.37,1.74-2.23,2.87-3a2.52,2.52,0,0,1,3.9,2.4c-.11,1.48-2.14,2.43-3.51,2.25-1.61-.21-3.64-2.57-2.94-4.18.35-.83-.61-1.79-1.35-1Z" stroke="#1d1d1b" stroke-miterlimit="10" stroke-width="3"/><path d="M241.2,349.22c-2.52,2.58-.83,6.94,1.94,8.61a5.86,5.86,0,0,0,8.8-3.95,6.88,6.88,0,0,0-5.36-7.87,5.28,5.28,0,0,0-5,1.81c-.81,1-1.93,3.09-1.05,4.32a1.56,1.56,0,0,0,1.69.69c1.46-.37,1.74-2.23,2.87-3a2.52,2.52,0,0,1,3.9,2.4c-.11,1.48-2.14,2.43-3.51,2.25-1.6-.21-3.64-2.57-2.94-4.18.35-.83-.61-1.79-1.35-1Z" stroke="#1d1d1b" stroke-miterlimit="10" stroke-width="3"/><path d="M365.38,323.47a33.64,33.64,0,0,0,.27-4.71c0-1.55.06-2.87-1.3-3.83a1.48,1.48,0,0,0-2,.52c-.71,1.48,0,2.51.51,3.95a35.27,35.27,0,0,1,1.15,4.26c.17.85,1.29.53,1.38-.19Z" stroke="#1d1d1b" stroke-miterlimit="10" stroke-width="3"/><path d="M169.34,323.47a25.53,25.53,0,0,0,.13-4.71c-.09-1.51-.07-2.95-1.45-3.83a1.49,1.49,0,0,0-2.16.87c-.53,1.41.43,2.56.93,3.85a25.55,25.55,0,0,1,1.17,4c.18.84,1.3.54,1.38-.19Z" stroke="#1d1d1b" stroke-miterlimit="10" stroke-width="3"/><path d="M191.28,323.3a33.52,33.52,0,0,0,1.22-3.4c.47-1.37,1.38-2.28.66-3.76a1.5,1.5,0,0,0-1.69-.69c-2.69.92-1.74,5.25-1.61,7.46,0,.69,1.07,1.13,1.42.39Z" stroke="#1d1d1b" stroke-miterlimit="10" stroke-width="3"/><path d="M30.38,318.6c39.26.07,78.53.28,117.8.18l17,0c3.1,0,3.11-4.84,0-4.83q-58.9.15-117.81.7l-17,.13a1.93,1.93,0,0,0,0,3.86Z" stroke="#1d1d1b" stroke-miterlimit="10" stroke-width="3"/><path d="M29.67,323.3a34.83,34.83,0,0,0,1.12-3.41c.42-1.32,1.27-2.39.5-3.75a1.53,1.53,0,0,0-2.05-.53c-2.23,1-1.19,5.37-1,7.3.06.66,1.09,1.17,1.42.39Z" stroke="#1d1d1b" stroke-miterlimit="10" stroke-width="3"/><path d="M223.42,315.79c.07-1.59.14-3.19.22-4.78l-.75,1a5.81,5.81,0,0,1,2.81-.1c-.27-.35-.54-.7-.8-1.06,0,.95,0,1.89,0,2.84,0,1.12-.54,3,0,4a1.27,1.27,0,0,0,2,.25c.91-.88.48-2.94.41-4.08s-.14-2-.2-3a1.13,1.13,0,0,0-.8-1.05,7,7,0,0,0-4.17.36,1,1,0,0,0-.5.87l.34,4.78a.74.74,0,0,0,1.47,0Z" stroke="#1d1d1b" stroke-miterlimit="10" stroke-width="3"/><path d="M236.14,315.79l.21-4.78c-.24.33-.49.65-.74,1a5.77,5.77,0,0,1,2.8-.1l-.8-1.06c0,.95,0,1.89,0,2.84,0,1.12-.54,3,0,4a1.27,1.27,0,0,0,2,.25c.91-.88.48-2.94.41-4.08s-.15-2-.21-3a1.1,1.1,0,0,0-.8-1.05,7,7,0,0,0-4.16.36,1,1,0,0,0-.5.87l.34,4.78a.74.74,0,0,0,1.47,0Z" stroke="#1d1d1b" stroke-miterlimit="10" stroke-width="3"/><path d="M249.84,315.79l.21-4.78-.74,1a5.77,5.77,0,0,1,2.8-.1l-.8-1.06c0,.95,0,1.89,0,2.84,0,1.12-.53,3,0,4a1.27,1.27,0,0,0,2,.25c.91-.88.48-2.94.4-4.08s-.14-2-.2-3a1.11,1.11,0,0,0-.8-1.05,7,7,0,0,0-4.16.36,1,1,0,0,0-.5.87l.34,4.78a.74.74,0,0,0,1.47,0Z" stroke="#1d1d1b" stroke-miterlimit="10" stroke-width="3"/><path d="M307.56,315.79c.07-1.59.15-3.19.22-4.78l-.75,1a5.81,5.81,0,0,1,2.81-.1c-.27-.35-.54-.7-.8-1.06,0,.95,0,1.89,0,2.84,0,1.12-.54,3,0,4a1.27,1.27,0,0,0,2,.25c.91-.88.49-2.94.41-4.08s-.14-2-.2-3a1.13,1.13,0,0,0-.8-1.05,7,7,0,0,0-4.17.36,1,1,0,0,0-.5.87l.34,4.78a.74.74,0,0,0,1.47,0Z" stroke="#1d1d1b" stroke-miterlimit="10" stroke-width="3"/><path d="M320.28,315.79c.07-1.59.14-3.19.22-4.78l-.75,1a5.81,5.81,0,0,1,2.81-.1c-.27-.35-.54-.7-.8-1.06,0,.95,0,1.89,0,2.84,0,1.12-.54,3,0,4a1.27,1.27,0,0,0,2,.25c.91-.88.48-2.94.41-4.08s-.14-2-.2-3a1.13,1.13,0,0,0-.8-1.05,7,7,0,0,0-4.17.36,1,1,0,0,0-.5.87l.34,4.78a.74.74,0,0,0,1.47,0Z" stroke="#1d1d1b" stroke-miterlimit="10" stroke-width="3"/><path d="M334,315.79l.21-4.78-.74,1a5.77,5.77,0,0,1,2.8-.1l-.8-1.06c0,.95,0,1.89,0,2.84,0,1.12-.53,3,0,4a1.27,1.27,0,0,0,2,.25c.91-.88.48-2.94.4-4.08s-.14-2-.2-3a1.1,1.1,0,0,0-.8-1.05,7,7,0,0,0-4.16.36,1,1,0,0,0-.5.87l.34,4.78a.74.74,0,0,0,1.47,0Z" stroke="#1d1d1b" stroke-miterlimit="10" stroke-width="3"/><path d="M103.53,316c.09-1.83-.25-3.69-.17-5.55a31.55,31.55,0,0,1,.75-5.89l-1.28,1c3.6.25,7.55,0,11,1,3.23.89,3.49-4.77,0-4s-7.44.32-11,.37a1.33,1.33,0,0,0-1.28,1,34.7,34.7,0,0,0-.34,6.6c.07,1.83,0,4.29,1,5.92a.74.74,0,0,0,1.36-.37Z" stroke="#1d1d1b" stroke-miterlimit="10" stroke-width="3"/><path d="M105,305.05c-.3-2.53-2.13-6.3-1-8.74.64-1.33,2.45-1.8,3.82-2,1.79-.26,1.07-3.13-.77-2.78-2.08.41-4.52,1.53-5.38,3.59-1.29,3.08.23,7.93,2.34,10.31.3.33,1,.08.94-.39Z" stroke="#1d1d1b" stroke-miterlimit="10" stroke-width="3"/><path d="M114.65,305c11.6-9.08-7.57-22.26-13.61-27.12a1.8,1.8,0,0,0-3,1.26c-.46,5.7,4.21,11,8.38,14.36,1.49,1.21,3.62-.78,2.16-2.16-3.21-3-7.45-7.48-7-12.2l-3,1.25c3.84,3,7.57,6.13,11.14,9.45,2.29,2.12,4.7,3.89,5,7.25.24,2.36-.66,4.63-1.6,6.72a1,1,0,0,0,1.53,1.19Z" stroke="#1d1d1b" stroke-miterlimit="10" stroke-width="3"/><path d="M104.33,302.27c-4.75-3.66-9.36-7.58-14.27-11-7.26-5.09-13.82-10.77-20.66-16.42-3.6-3-7.35-6.9-11.63-8.94-7.79-3.71-15.12.82-15.06,9.74a1.91,1.91,0,0,0,1.88,1.88h5.87a1.93,1.93,0,0,0,1.82-2.4c-.37-2.06,2.65-.44,3.31.05,2.63,2,5.24,4,7.84,6,4.26,3.31,8.47,6.67,12.71,10,8.08,6.35,16.18,12.68,24.38,18.89,1.86,1.41,3.63-1.72,1.82-3.12-12.28-9.48-24.29-19.32-36.57-28.8-2.92-2.24-5.8-4.67-8.84-6.74-1.36-.92-2.69-1.87-4.42-1.69-3.23.33-4.39,3.6-3.88,6.4l1.83-2.39H44.59l1.88,1.88a11.65,11.65,0,0,1,1.76-5.54c2.35-2.94,5.91-2.07,8.8-.43a30.43,30.43,0,0,1,3.57,2.6c4.38,3.35,8.75,6.72,13.17,10,9.75,7.25,18.81,15.32,28.3,22.95a1.86,1.86,0,1,0,2.26-2.93Z" stroke="#1d1d1b" stroke-miterlimit="10" stroke-width="3"/><path d="M46,275.32c-1.73-1.25-3.34-.37-3.69,1.62-.19,1.1-.3,2.21-.42,3.31a4.89,4.89,0,0,0-.06,1.57c.08.36.2,1.21.21.58a1.71,1.71,0,0,0,1.5,1.71h8.08a1.71,1.71,0,0,0,1.49-1.71,34.79,34.79,0,0,0,0-4.79c-.25-2-1.88-4.17-4-2.81a1.21,1.21,0,0,0,0,2.09c.53.27,1.37.2,1.81.46-.19-.25-.38-.51-.58-.76a9.16,9.16,0,0,1-.16,1.31c0,.67,0,1.34,0,2s0,1.75,0,2.51c.5-.5,1-1.26,1.5-1.26H43.57c.5,0,1,.76,1.5,1.26,0-.06-.61,1.21,0,.18a3.76,3.76,0,0,0,.27-.73,8.92,8.92,0,0,0,0-2.25c0-.75,0-1.52,0-2.27a4,4,0,0,1-.05-1c-.11.37.58-.4.81-.53a.28.28,0,0,0,0-.48Z" stroke="#1d1d1b" stroke-miterlimit="10" stroke-width="3"/><path d="M115.33,316.71c1.16-1.27.92-3.1,1-4.73a41.05,41.05,0,0,0,0-7.27.8.8,0,0,0-1.57-.21,17.62,17.62,0,0,0-1.06,7c0,1.74-.14,4,1.27,5.19a.25.25,0,0,0,.34,0Z" stroke="#1d1d1b" stroke-miterlimit="10" stroke-width="3"/><path d="M178.86,182.9c-4.74-2.57-10.5-.49-11.93,4.9A8.88,8.88,0,0,0,175.38,199c5.85,0,9.59-6.29,7.94-11.62-1.52-4.89-7.72-7.69-11.74-3.77-.5.49.14,1.17.71.91,3.69-1.67,8.13.57,8.11,4.92a4.77,4.77,0,0,1-5.81,4.62,4.61,4.61,0,0,1-3.49-5.84c.87-3.08,4.3-4.79,7.33-4.28.58.09,1-.69.43-1Z" stroke="#1d1d1b" stroke-miterlimit="10" stroke-width="3"/><path d="M25.16,182.9c-4.74-2.57-10.5-.49-11.93,4.9A8.88,8.88,0,0,0,21.67,199c5.86,0,9.6-6.29,7.94-11.62-1.52-4.89-7.71-7.69-11.73-3.77-.5.49.13,1.17.7.91,3.7-1.67,8.13.57,8.12,4.92A4.77,4.77,0,0,1,20.89,194a4.61,4.61,0,0,1-3.49-5.84c.87-3.08,4.3-4.79,7.33-4.28.58.09,1-.69.43-1Z" stroke="#1d1d1b" stroke-miterlimit="10" stroke-width="3"/><path d="M146.34,247.09c1.33-1.54,1.3-4,1.38-5.92a120.44,120.44,0,0,0-.56-13.69c-.32-4.14-.76-8.29-.93-12.44-.11-2.76-1.13-13.21,1.52-14.56,1.28-.65,1-.31,1.42,1.18.64,2.32.44,5.11.47,7.48,0,5.14-.19,10.29-.39,15.42-.19,4.9-.42,9.81-.5,14.71,0,2-.62,5.37.38,7.27.41.78,1.57,1.35,2.19,1.9,2.39,2.16,4.38,5.38,3.39,8.66a6.69,6.69,0,0,1-11.57,2.14c-3.32-4.12-.46-9.18,3.34-11.78,1.68-1.15.08-3.91-1.61-2.75-4.62,3.2-8.11,8.92-5.45,14.51,2.24,4.71,8.21,7.22,13,4.76,5.15-2.67,7.11-8,4.48-13.25a15.6,15.6,0,0,0-4.38-5.2c-.89-.69-.92-1.16-.68-.35a10,10,0,0,1-.1-2.45c-.26-13.26,2-27.2-.08-40.35-.31-2-.73-4.46-3.1-4.71-4.18-.45-4.13,6-4.25,8.55a150.75,150.75,0,0,0,.91,20.7c.31,3.49.61,7,.73,10.5.08,2.14.76,6.66-.77,8.46-.71.83.48,2.05,1.21,1.21Z" stroke="#1d1d1b" stroke-miterlimit="10" stroke-width="3"/><path d="M113.89,247.09c1.42-1.63,1.34-4.31,1.41-6.34a130.33,130.33,0,0,0-.58-13.83c-.22-2.83-2.19-27.32,1.11-26.81,2.61.41.9,21.52.81,24.45-.17,5.07-.38,10.13-.45,15.2,0,2-.53,5.09.47,7s3.73.2,2.74-1.6c-.42-.78-.07-3.39-.07-4.42,0-2.49.06-5,.12-7.46.13-5.62.33-11.24.42-16.87.08-5,.62-10.78-.77-15.67-.46-1.59-1.16-3-2.93-3.22-10.72-1.37.8,43.32-3.49,48.41-.7.84.48,2.05,1.21,1.21Z" stroke="#1d1d1b" stroke-miterlimit="10" stroke-width="3"/><path d="M113,246.46c-1.75-.61-4.35-1.07-6.14-.37a1.28,1.28,0,0,0-.89,1.17c-.5,5.72-1.4,11.38-2.31,17.05a1.26,1.26,0,0,0,1.2,1.58c3.36.09,6.64.83,10.07.73,3.64-.11,7.27-.31,10.9-.47a1.53,1.53,0,0,0,1.45-1.9c-1-5.8-.86-12.25-2.76-18a1.09,1.09,0,0,0-1.29-.73c-1.74.27-3.77-.18-5.51-.24s-1.57,2.7,0,2.5a47.35,47.35,0,0,1,5-.3c-.55,0-.1-1.67-.37,0-.3,1.89.3,4.18.5,6.07.39,3.67,1.13,7.49,1.42,11.07l1.51-1.5c-3.63-.16-7.26-.36-10.9-.47-3.43-.1-6.71.64-10.07.73l1.25,1.24c.4-3.74.75-7.49,1.28-11.22a46.07,46.07,0,0,1,.83-5.26c.29-1.08-.6.2.07.15a21.54,21.54,0,0,0,4.71-.9.5.5,0,0,0,0-.95Z" stroke="#1d1d1b" stroke-miterlimit="10" stroke-width="3"/><path d="M77.78,211.29a93.43,93.43,0,0,0-4.59,11.88c-.78,2.45-2.79,6.23-2.21,8.85a1.69,1.69,0,0,0,2.81.75c1.7-1.86,1.93-5.92,2.54-8.23,1.09-4.15,2.07-8.35,3.35-12.45.34-1.1-1.39-1.88-1.9-.8Z" stroke="#1d1d1b" stroke-miterlimit="10" stroke-width="3"/><path d="M78.51,211.72c3.26,2.93,8.1,4.54,11.76,7,2.41,1.62,4.82,3.19,7.24,4.77,1.82,1.19,4-1.55,2.34-3A39.19,39.19,0,0,0,91.9,215c-3.6-1.91-9-5.21-13.25-3.8a.34.34,0,0,0-.14.56Z" stroke="#1d1d1b" stroke-miterlimit="10" stroke-width="3"/><path d="M95.19,236.44a69.75,69.75,0,0,0-8.73-1.83c-4.91-.89-9.4-3-14.21-4A1.29,1.29,0,0,0,71,232.73c3.17,3.67,9.54,4,14,4.44,3.32.33,6.89.58,10.16-.26a.24.24,0,0,0,0-.47Z" stroke="#1d1d1b" stroke-miterlimit="10" stroke-width="3"/><path d="M98.89,221.64c-.68,4.88-1.35,10.69-4.07,14.91-.24.36.34.7.58.34,1.6-2.49,3.27-4.56,4.21-7.43a16.82,16.82,0,0,0,.45-7.82.61.61,0,0,0-1.17,0Z" stroke="#1d1d1b" stroke-miterlimit="10" stroke-width="3"/><path d="M84.26,213.48c-.83-1.79-1.8-3.53-1.61-5.58.15-1.6-.15-.77.8-.91a5.27,5.27,0,0,1,2.5.66c3.85,1.77,5,5,4.42,9-.23,1.5,1.77,2.65,2.63,1.11,3.44-6.16-1.18-14-7.88-14.85-3.16-.4-5.78.79-5.57,4.26.18,2.75,1.69,5.77,4.4,6.72.25.09.4-.21.31-.41Z" stroke="#1d1d1b" stroke-miterlimit="10" stroke-width="3"/><path d="M85.12,193.56a90.06,90.06,0,0,0,.33,13.14,1.13,1.13,0,0,0,2.26,0,90.14,90.14,0,0,0-.51-13.14,1,1,0,0,0-2.08,0Z" stroke="#1d1d1b" stroke-miterlimit="10" stroke-width="3"/><path d="M115.25,192.61c-.36,1-.48,2.1-.75,3.16a15,15,0,0,0-.61,3.18,1.26,1.26,0,0,0,2.33.63,8.55,8.55,0,0,0,.2-7.12c-.24-.55-1-.32-1.17.15Z" stroke="#1d1d1b" stroke-miterlimit="10" stroke-width="3"/><path d="M147.19,192.65c-.13.92-.25,1.84-.38,2.75a4.29,4.29,0,0,0,.06,2.51,1,1,0,0,0,1.64,0,4.21,4.21,0,0,0,.05-2.51c-.12-.91-.25-1.83-.37-2.75-.07-.49-.94-.49-1,0Z" stroke="#1d1d1b" stroke-miterlimit="10" stroke-width="3"/><path d="M200,284.13c-1.73,8.34,4.73,17.9,11.44,22.5,7,4.79,16.06,4.75,24.18,4.5,8.89-.27,18.92.27,26.95-4.28,8.4-4.75,12-13.93,11.06-23.21a1.14,1.14,0,0,0-2.23-.3c-2.27,7.63-3.83,15.88-11.51,19.9-6.74,3.52-15.43,3.42-22.83,3.22-6.56-.17-13.73.08-20-2.28-7.05-2.67-15.06-12-14.34-19.68.15-1.57-2.44-1.92-2.76-.37Z" stroke="#1d1d1b" stroke-miterlimit="10" stroke-width="3"/><path d="M200.61,284.41c8.65.48,17.26.51,25.92.53q11.28,0,22.56.16c7.47.09,15.15,1,22.59.66,2.21-.11,3-3.68.55-4.09-6.82-1.15-14.21-.69-21.12-.72-8,0-16,.13-24,.42-8.9.32-17.72.76-26.55,1.94a.55.55,0,0,0,0,1.1Z" stroke="#1d1d1b" stroke-miterlimit="10" stroke-width="3"/><path d="M271.7,282.67a172.18,172.18,0,0,0,17.74.9c1.77,0,9.78-.86,10.18.88.48,2.05-6.9.85-8.32.8-6.22-.22-12.8-1-19-.22-1.6.21-2.29,2.62-.42,3.07,7.77,1.87,16.44,1.34,24.4,1.53,3.7.09,7.74-.12,7.63-5-.1-4.56-3.71-4.91-7.26-4.78-8.34.3-16.71.46-25,1.56a.64.64,0,0,0,0,1.28Z" stroke="#1d1d1b" stroke-miterlimit="10" stroke-width="3"/><path d="M376,315.87a4.8,4.8,0,0,0-.48,4.4,4.54,4.54,0,0,0,4.35,3.07,4.59,4.59,0,0,0,4.49-3.29c.51-1.87-.1-4.42-2.23-4.9a1.61,1.61,0,0,0-1.8,2.33c.23.5.65,1,.48,1.59a1.53,1.53,0,0,1-1.59.88,3,3,0,0,1-2.71-3.87.28.28,0,0,0-.51-.21Z" stroke="#1d1d1b" stroke-miterlimit="10" stroke-width="3"/><path d="M493.15,315.61c-.86,1.73-1.5,3.45-.94,5.39a4.71,4.71,0,0,0,3.38,3.37c3.26.76,6.32-3.08,3.78-5.75-.86-.9-2.7,0-2.2,1.28a.83.83,0,0,1-.32,1c-.44.3-.84,0-1.23-.3-1.33-1-1.4-3.17-1.45-4.72,0-.52-.77-.79-1-.28Z" stroke="#1d1d1b" stroke-miterlimit="10" stroke-width="3"/><path d="M482,257.69c-.19,2.27-.36,4.55-.65,6.81-.1.77.72,1.36,1.4,1.39a109.58,109.58,0,0,0,12.81.39,1.73,1.73,0,0,0,1.72-1.72c-.15-2.13-.33-4.25-.28-6.39a1.48,1.48,0,0,0-1.46-1.46l-6.59-.19c-2.06-.08-4.16-.37-6.18.19a1.54,1.54,0,0,0,0,3c2,.55,4.12.26,6.18.18l6.59-.21-1.46-1.46c.07,2.14-.1,4.26-.24,6.39l1.72-1.71a109.56,109.56,0,0,0-12.81.26l1.34,1c-.32-2.14-.51-4.29-.74-6.44a.68.68,0,0,0-1.35,0Z" stroke="#1d1d1b" stroke-miterlimit="10" stroke-width="3"/><path d="M482,271.39c-.3,5.21-.72,10.39-.78,15.61a1.56,1.56,0,0,0,1.53,1.53c4.25.11,8.56.44,12.81.26a1.74,1.74,0,0,0,1.73-1.72c-.25-5.09-.27-10.12-.18-15.2a1.59,1.59,0,0,0-1.57-1.58c-4.19-.08-8.63-.65-12.77.12a1.54,1.54,0,0,0,0,2.95c4.14.75,8.58.17,12.77.08L494,271.87c.11,5.08.1,10.11-.13,15.2l1.72-1.73c-4.25-.22-8.56.07-12.81.14l1.52,1.52c-.16-5.22-.53-10.41-.92-15.61a.68.68,0,0,0-1.35,0Z" stroke="#1d1d1b" stroke-miterlimit="10" stroke-width="3"/><path d="M282.62,102.47a38.48,38.48,0,0,0-9.41.08c-1.77.25-4.51.48-5.57,2.25-2.48,4.17,4.79,4.75,6.92,4.86,2.69.15,11.62,1.11,12.46-3,.81-3.86-7-4.59-9.28-4.64-1,0-1.33,1.68-.25,1.86,1.25.21,6.64.46,7.07,1.7.82,2.33-7.72,1.83-8.67,1.78s-4.19.12-4.68-.51c-1.16-1.5.64-1.88,1.92-2.19a32.61,32.61,0,0,1,9.49-.88c.88,0,.85-1.26,0-1.35Z" stroke="#1d1d1b" stroke-miterlimit="10" stroke-width="3"/></svg>