<svg id="Layer_1" data-name="Layer 1" xmlns="http://www.w3.org/2000/svg" viewBox="0 0 512 512"><g id="页面-1"><g id="Media"><g id="camera_2_line" data-name="camera 2 line"><rect id="矩形" x="17.47" y="9.84" width="492.32" height="492.32" fill="none"/><path id="形状" d="M320.92,71.38a30.76,30.76,0,0,1,19.5,7l2.26,2,32,32h53a41,41,0,0,1,40.92,38l.11,3.06V399.59a41,41,0,0,1-38,40.92l-3.07.11H99.52a41,41,0,0,1-40.91-38l-.11-3.06V153.43a41,41,0,0,1,38-40.91l3.06-.11h53l32-32a30.76,30.76,0,0,1,18.71-8.86l3.05-.15Zm-4.25,41H210.58l-32,32a30.76,30.76,0,0,1-18.72,8.86l-3,.15H99.52V399.59H427.73V153.43H370.44a30.81,30.81,0,0,1-19.5-7l-2.26-2.05Zm-53,51.28A102.57,102.57,0,1,1,161.06,266.26,102.57,102.57,0,0,1,263.63,163.69Zm0,41a61.54,61.54,0,1,0,61.54,61.54A61.54,61.54,0,0,0,263.63,204.72Z" fill-rule="evenodd"/></g></g></g></svg>