<svg id="Layer_1" data-name="Layer 1" xmlns="http://www.w3.org/2000/svg" viewBox="0 0 512 512"><g id="页面-1"><g id="Building"><g id="building_1_line" data-name="building 1 line"><rect id="矩形" x="48.55" y="33.6" width="434.33" height="434.33" fill="none"/><path id="形状" d="M283.81,87.89a36.2,36.2,0,0,1,36.09,33.49l.1,2.7v72.39h54.29A36.21,36.21,0,0,1,410.39,230l.09,2.71V377.44h18.1a18.1,18.1,0,0,1,2.11,36.07l-2.11.13H102.84a18.1,18.1,0,0,1-2.11-36.08l2.11-.12h18.09V124.08A36.2,36.2,0,0,1,154.43,88l2.7-.1Zm90.48,144.78H320V377.44h54.29ZM283.81,124.08H157.13V377.44H283.81Zm-36.2,181v36.2H193.32v-36.2Zm0-72.38v36.19H193.32V232.67Zm0-72.39v36.19H193.32V160.28Z"/></g></g></g></svg>