<svg id="Layer_1" data-name="Layer 1" xmlns="http://www.w3.org/2000/svg" viewBox="0 0 512 512"><path d="M262.12,492.06l-29.21-26.82q-65.57-60.8-107.89-104T58,284.34q-24.74-33.69-34.27-61.1a167.67,167.67,0,0,1-9.54-55.44q0-56.62,38.75-95.37t95.37-38.74A133,133,0,0,1,210,48.89q29.5,15.2,52.16,44.41,25.62-30.4,54.24-45A129.53,129.53,0,0,1,376,33.69q56.64,0,95.38,38.74t38.74,95.37a167.67,167.67,0,0,1-9.54,55.44q-9.54,27.42-34.27,61.1t-67.06,76.89q-42.31,43.22-107.89,104Zm0-57.81q60.79-56,100.43-96t62.59-70q23-30.11,32.19-53.64a127.39,127.39,0,0,0,9.24-46.8q0-39.33-25.34-65T376,77.2q-29.79,0-56.32,19.08A115.92,115.92,0,0,0,280,146.35H243.64A113.76,113.76,0,0,0,204.3,96.57q-26.82-19.36-56-19.37-39.95,0-65.27,25.34T57.67,167.8a129.63,129.63,0,0,0,9.24,47.09q9.23,23.85,32.48,53.95t62.59,70Q201.31,378.81,262.12,434.25Z"/></svg>