<svg id="Layer_1" data-name="Layer 1" xmlns="http://www.w3.org/2000/svg" viewBox="0 0 512 512"><g id="页面-1"><g id="System"><g id="settings_5_line" data-name="settings 5 line"><path d="M5.55-3V521.09h524V-3ZM417.08,291.31a84.81,84.81,0,0,0,16.4,22.6,172.92,172.92,0,0,1-9.83,23.69c-2.43,0-4.87.09-7.29.27m-99.1-7a87.68,87.68,0,0,0,25.87-28M227,243a43.73,43.73,0,0,1,27.68-25.64m33.78,80.09a43.66,43.66,0,0,0,22.82-38.38c0-1.29-.07-2.58-.16-3.84m-87.86-153a75.93,75.93,0,0,0,32.59,14m-20.93,61.89a87,87,0,0,1,32.69-6.33c1.61,0,3.22.05,4.81.13" fill="none"/><path id="形状" d="M349.14,227.78a87.39,87.39,0,0,0-76.76-55.92c-1.59-.08-3.2-.13-4.81-.13a87.28,87.28,0,1,0,81.57,56.05ZM223.9,259.06a43.68,43.68,0,0,1,87.18-3.84c.09,1.26.16,2.55.16,3.84a43.67,43.67,0,0,1-87.34,0Zm125.24-31.28a87.39,87.39,0,0,0-76.76-55.92c-1.59-.08-3.2-.13-4.81-.13a87.28,87.28,0,1,0,81.57,56.05ZM223.9,259.06a43.68,43.68,0,0,1,87.18-3.84c.09,1.26.16,2.55.16,3.84a43.67,43.67,0,0,1-87.34,0Zm125.24-31.28a87.39,87.39,0,0,0-76.76-55.92c-1.59-.08-3.2-.13-4.81-.13a87.28,87.28,0,1,0,81.57,56.05ZM223.9,259.06a43.68,43.68,0,0,1,87.18-3.84c.09,1.26.16,2.55.16,3.84a43.67,43.67,0,0,1-87.34,0Zm125.24-31.28a87.39,87.39,0,0,0-76.76-55.92c-1.59-.08-3.2-.13-4.81-.13a87.28,87.28,0,1,0,81.57,56.05ZM223.9,259.06a43.68,43.68,0,0,1,87.18-3.84c.09,1.26.16,2.55.16,3.84a43.67,43.67,0,0,1-87.34,0Zm247.17,29.63c-7.7-5.52-12.72-11.76-15.44-18.08a29.19,29.19,0,0,1-2.45-11.55c0-9.94,5.49-20.72,17.89-29.61a21.86,21.86,0,0,0,8.47-23,217.66,217.66,0,0,0-24-58.49c-.29-.52-.61-1.05-.93-1.58a21.86,21.86,0,0,0-22.25-10.26c-15,2.48-26.54-1.25-33.58-8.29-6.52-6.52-10.2-16.89-8.74-30.37.12-1,.26-2.12.44-3.21A21.79,21.79,0,0,0,380.25,72a216.62,216.62,0,0,0-56.58-24c-1.15-.31-2.32-.61-3.49-.9a21.81,21.81,0,0,0-23,8.48C288.3,68,277.52,73.47,267.57,73.47a30.64,30.64,0,0,1-16.64-5.19,47.43,47.43,0,0,1-13-12.7,21.81,21.81,0,0,0-23-8.48,216.35,216.35,0,0,0-39.92,14.14A221.07,221.07,0,0,0,154.88,72a21.84,21.84,0,0,0-10.26,22.24c2.49,15-1.26,26.55-8.29,33.58s-18.54,10.77-33.58,8.29a21.85,21.85,0,0,0-22.24,10.26A217.1,217.1,0,0,0,55.6,206.46a21.82,21.82,0,0,0,8.48,23C76.48,238.34,82,249.12,82,259.06s-5.49,20.73-17.89,29.63a21.81,21.81,0,0,0-8.48,23,217.17,217.17,0,0,0,24.91,60.07A21.82,21.82,0,0,0,102.75,382c15-2.47,26.55,1.26,33.58,8.29s10.78,18.54,8.29,33.58a21.86,21.86,0,0,0,10.26,22.25A217.65,217.65,0,0,0,215,471a21.86,21.86,0,0,0,23-8.48c8.88-12.4,19.67-17.89,29.61-17.89s20.73,5.49,29.62,17.89a21.86,21.86,0,0,0,23,8.48,217.78,217.78,0,0,0,60.07-24.91,21.81,21.81,0,0,0,10.26-22.25c-2.47-15,1.27-26.54,8.3-33.58s18.54-10.76,33.58-8.29a21.89,21.89,0,0,0,22.25-10.26,217.52,217.52,0,0,0,22.24-50.37q1.46-4.8,2.66-9.7A21.84,21.84,0,0,0,471.07,288.69Zm-125,126.46A175.25,175.25,0,0,1,322.42,425c-14.34-14.39-33.19-24-54.85-24s-40.51,9.6-54.85,24A174.59,174.59,0,0,1,189,415.15a82.46,82.46,0,0,0-7-34.26,70.77,70.77,0,0,0-7-12.19,73.14,73.14,0,0,0-7.84-9.28c-15.31-15.31-35.41-21.85-55.72-21.82a172.88,172.88,0,0,1-9.82-23.69c14.39-14.34,24-33.18,24-54.85s-9.58-40.51-24-54.85a171.89,171.89,0,0,1,9.82-23.67c20.31,0,40.41-6.51,55.72-21.84a72.37,72.37,0,0,0,7.84-9.27c9.74-13.73,14-30,14-46.45a174.54,174.54,0,0,1,23.68-9.82,88.41,88.41,0,0,0,10.5,9,75.93,75.93,0,0,0,32.59,14,72.06,72.06,0,0,0,11.76,1c21.66,0,40.51-9.59,54.85-24A175.2,175.2,0,0,1,346.11,103c0,2.57.09,5.13.3,7.67a77.85,77.85,0,0,0,12.45,37,71.25,71.25,0,0,0,9.07,11.06c14.63,14.65,33.63,21.27,53,21.8.91,0,1.81,0,2.72,0a173.19,173.19,0,0,1,9.83,23.67,83,83,0,0,0-19.54,29.9,72.36,72.36,0,0,0,3.14,57.2,84.81,84.81,0,0,0,16.4,22.6,172.92,172.92,0,0,1-9.83,23.69c-2.43,0-4.87.09-7.29.27-17.78,1.39-34.95,8.08-48.43,21.55a71.92,71.92,0,0,0-14.81,21.47A82.76,82.76,0,0,0,346.11,415.15Zm-26.2-226a86.88,86.88,0,0,0-47.53-17.28c-1.59-.08-3.2-.13-4.81-.13a87.38,87.38,0,1,0,52.34,17.41Zm-96,69.92a43.68,43.68,0,0,1,87.18-3.84c.09,1.26.16,2.55.16,3.84a43.67,43.67,0,0,1-87.34,0Zm125.24-31.28a87.39,87.39,0,0,0-76.76-55.92c-1.59-.08-3.2-.13-4.81-.13a87.28,87.28,0,1,0,81.57,56.05ZM223.9,259.06a43.68,43.68,0,0,1,87.18-3.84c.09,1.26.16,2.55.16,3.84a43.67,43.67,0,0,1-87.34,0Zm125.24-31.28a87.39,87.39,0,0,0-76.76-55.92c-1.59-.08-3.2-.13-4.81-.13a87.28,87.28,0,1,0,81.57,56.05ZM223.9,259.06a43.68,43.68,0,0,1,87.18-3.84c.09,1.26.16,2.55.16,3.84a43.67,43.67,0,0,1-87.34,0Z" fill-rule="evenodd"/></g></g></g></svg>