<svg id="Layer_1" data-name="Layer 1" xmlns="http://www.w3.org/2000/svg" viewBox="0 0 512 512"><path d="M462.43,317,460,305.27a32.73,32.73,0,0,0-1.22-7.84l-.4.11c-7.5-36-15.1-75-22.47-112.68-7.85-40.2-16-81.78-24-119.81l-1.82-8.66-309-2.88-1.75,9c-7.77,40.05-14.52,80.63-21,119.88S65,261.93,57.33,301.69l-2.66,13.72,3.19-.15V420.84A35.13,35.13,0,0,0,93,455.91h332A35.11,35.11,0,0,0,460,420.84V317.14ZM100,186c6-36.17,12.23-73.47,19.22-110.32l273,2.55C399.57,113.72,407,152,414.28,189.08c7,35.77,14.18,72.62,21.31,107.1-15.91.6-32.75,1.05-49.15,1.49-21,.57-42.79,1.15-62.53,2.05L317,300l-2.7,6.41c-9.17,21.82-9.85,23.47-10,23.88s-1.36,3.24-6.54,15.53l-79.19-1c-1.74-6.73-3-11.56-3.78-14.42-.4-1.49-.76-2.83-1.22-4.05-.42-1.63-2-8.07-6-24.38l-2.14-8.8-9.05.41c-19.22.87-41.76.22-63.56-.4-17.22-.5-34.9-1-51.32-.79C88.21,256.76,94.18,220.85,100,186ZM213.35,325.91c-.14-.34-.28-.66-.44-1C213.09,325.29,213.24,325.62,213.35,325.91Zm-20.13,8.77a7.87,7.87,0,0,1-.35-.84C193,334.13,193.09,334.41,193.22,334.68Zm231.71,99.23H93a13.1,13.1,0,0,1-13.11-13.07V314.43c16.49-.29,34.65.24,52.33.75,18.92.54,38.38,1.1,56.12.69,1.73,7.1,2.72,11.18,3.3,13.53a42.45,42.45,0,0,0,1.25,4.42c.26.82,1.4,4.89,6.45,24.63l2.09,8.16,110.84,1.44,2.87-6.82c9.5-22.54,9.5-22.54,9.6-22.81.22-.52,2.61-6.24,7.14-17,17.65-.73,36.69-1.24,55.18-1.73,17-.46,34.47-.94,51-1.57V420.84A13.08,13.08,0,0,1,424.93,433.91Z"/></svg>