<svg id="Layer_1" data-name="Layer 1" xmlns="http://www.w3.org/2000/svg" viewBox="0 0 512 512"><g id="页面-1"><g id="Business"><g id="bank_card_line" data-name="bank card line"><rect id="矩形" x="17.33" y="30.85" width="494.67" height="494.67" fill="none"/><path id="形状" d="M408.94,113.3a61.83,61.83,0,0,1,61.84,61.83V381.24a61.83,61.83,0,0,1-61.84,61.83H120.39a61.83,61.83,0,0,1-61.83-61.83V175.13a61.83,61.83,0,0,1,61.83-61.83ZM429.56,237H99.78V381.24A20.61,20.61,0,0,0,118,401.71l2.4.14H408.94a20.62,20.62,0,0,0,20.48-18.21l.14-2.4ZM367.72,298.8a20.61,20.61,0,0,1,2.41,41.08l-2.41.14H305.89a20.62,20.62,0,0,1-2.4-41.09l2.4-.13Zm41.22-144.28H120.39a20.61,20.61,0,0,0-20.61,20.61v20.61H429.56V175.13A20.62,20.62,0,0,0,408.94,154.52Z"/></g></g></g></svg>