<svg id="Layer_1" data-name="Layer 1" xmlns="http://www.w3.org/2000/svg" viewBox="0 0 512 512"><path d="M268.12,311.29a119.34,119.34,0,0,0-6.73-16.2l-1.86,0c-13.25-.37-26.25-4.9-36.26-14.92a49.3,49.3,0,0,1-6.2-7.56,53.24,53.24,0,0,1-8.52-25.31q-.21-2.61-.21-5.25a119.24,119.24,0,0,0-16.2-6.71c-9.81,9.84-22.71,16.4-37.53,16.4a48.19,48.19,0,0,1-8-.67,51.7,51.7,0,0,1-22.29-9.55,60.28,60.28,0,0,1-7.19-6.18,119.24,119.24,0,0,0-16.2,6.71c0,11.24-2.91,22.39-9.57,31.78A48.92,48.92,0,0,1,86,280.15c-10.48,10.49-24.23,15-38.12,14.94a118,118,0,0,0-6.72,16.2c9.84,9.81,16.4,22.7,16.4,37.52S51,376.52,41.12,386.33a118.89,118.89,0,0,0,6.72,16.21c13.89,0,27.64,4.46,38.12,14.93a49.6,49.6,0,0,1,5.36,6.34,48.42,48.42,0,0,1,4.76,8.34,56.54,56.54,0,0,1,4.81,23.44,119.29,119.29,0,0,0,16.2,6.72c9.81-9.84,22.7-16.41,37.52-16.41s27.72,6.57,37.53,16.41a119.29,119.29,0,0,0,16.2-6.72,56.84,56.84,0,0,1,4.8-23.44,49.17,49.17,0,0,1,10.13-14.68c9.22-9.22,21-13.8,33.14-14.74,1.65-.13,3.32-.19,5-.19a118.94,118.94,0,0,0,6.73-16.21,58.15,58.15,0,0,1-11.23-15.46,49.71,49.71,0,0,1-5.18-22.06,49.07,49.07,0,0,1,3-17.07A56.58,56.58,0,0,1,268.12,311.29Zm-61.81,67.5a59.77,59.77,0,1,1-51.7-89.73c1.1,0,2.21,0,3.3.1a59.75,59.75,0,0,1,48.4,89.63Z" fill="none"/><path d="M355.55,130.36a25.35,25.35,0,1,0,25.36,25.36c0-.75,0-1.5-.1-2.24A25.36,25.36,0,0,0,355.55,130.36Z" fill="none"/><path d="M154.61,318.94a29.87,29.87,0,1,0,29.88,29.87c0-.88,0-1.76-.11-2.63A29.89,29.89,0,0,0,154.61,318.94Z" fill="none"/><path d="M451.87,123.87a101.62,101.62,0,0,0-5.7-13.74l-1.58,0c-11.25-.31-22.28-4.15-30.77-12.66A42.29,42.29,0,0,1,408.55,91a45.17,45.17,0,0,1-7.22-21.47c-.12-1.48-.18-3-.18-4.46a101.74,101.74,0,0,0-13.75-5.7c-8.33,8.36-19.27,13.92-31.85,13.92a41.3,41.3,0,0,1-6.82-.56,44,44,0,0,1-18.92-8.11,50.61,50.61,0,0,1-6.1-5.25A101.08,101.08,0,0,0,310,65.1a46.07,46.07,0,0,1-8.13,27,40.91,40.91,0,0,1-4.55,5.38c-8.89,8.9-20.56,12.7-32.35,12.68a101.62,101.62,0,0,0-5.7,13.74c8.36,8.33,13.92,19.27,13.92,31.85s-5.56,23.51-13.92,31.84a101.21,101.21,0,0,0,5.7,13.75c11.79,0,23.46,3.78,32.35,12.67a41.73,41.73,0,0,1,8.6,12.46A48.17,48.17,0,0,1,310,246.33a99.83,99.83,0,0,0,13.74,5.7c8.33-8.35,19.27-13.92,31.84-13.92s23.52,5.57,31.85,13.92a100.47,100.47,0,0,0,13.75-5.7,48,48,0,0,1,4.07-19.89,41.81,41.81,0,0,1,8.6-12.46c7.82-7.83,17.79-11.71,28.12-12.51,1.4-.11,2.81-.16,4.23-.16a101.21,101.21,0,0,0,5.7-13.75,49.35,49.35,0,0,1-9.52-13.13,42,42,0,0,1-1.82-33.2A48.19,48.19,0,0,1,451.87,123.87Zm-52.45,57.29A50.71,50.71,0,1,1,355.55,105c.94,0,1.87,0,2.8.08a50.71,50.71,0,0,1,41.07,76.07Z" fill="none"/><path d="M190.42,301a59.45,59.45,0,0,0-32.51-11.81c-1.09-.06-2.2-.1-3.3-.1A59.78,59.78,0,1,0,190.42,301Zm-21.54,74.09a29.87,29.87,0,1,1,15.5-28.88c.07.87.11,1.75.11,2.63A29.88,29.88,0,0,1,168.88,375.06Z"/><path d="M293.83,328.55a15,15,0,0,0,5.8-15.73,148.71,148.71,0,0,0-16.4-40c-.2-.36-.42-.73-.64-1.09a15,15,0,0,0-15.22-7c-10.29,1.7-18.16-.85-23-5.67-4.45-4.46-7-11.55-6-20.77.08-.72.17-1.45.3-2.2a14.92,14.92,0,0,0-7-15.22A148.19,148.19,0,0,0,193,204.42l-2.38-.62a14.93,14.93,0,0,0-15.73,5.8c-6.09,8.49-13.46,12.24-20.27,12.24a21,21,0,0,1-11.38-3.54,32.45,32.45,0,0,1-8.87-8.7,15,15,0,0,0-15.73-5.8,147.76,147.76,0,0,0-27.31,9.68,151.75,151.75,0,0,0-13.8,7.36,15,15,0,0,0-7,15.22c1.69,10.29-.87,18.16-5.68,23s-12.68,7.37-23,5.67a14.93,14.93,0,0,0-15.21,7,148.28,148.28,0,0,0-17,41.11,14.91,14.91,0,0,0,5.8,15.72c8.48,6.08,12.24,13.46,12.24,20.26S23.89,363,15.41,369.08a14.9,14.9,0,0,0-5.8,15.72,148.35,148.35,0,0,0,17,41.1,14.91,14.91,0,0,0,15.21,7c10.3-1.69,18.16.86,23,5.67s7.37,12.69,5.68,23a15,15,0,0,0,7,15.23,148.89,148.89,0,0,0,41.11,17,15,15,0,0,0,15.73-5.8c6.07-8.49,13.45-12.24,20.25-12.24s14.18,3.75,20.27,12.24a15,15,0,0,0,15.73,5.8,149,149,0,0,0,41.09-17,14.93,14.93,0,0,0,7-15.23c-1.69-10.28.87-18.15,5.67-23s12.69-7.36,23-5.67a15,15,0,0,0,15.22-7,148.31,148.31,0,0,0,15.21-34.46c.67-2.19,1.27-4.4,1.83-6.64a14.94,14.94,0,0,0-5.8-15.72c-5.26-3.78-8.7-8.05-10.56-12.37a20.09,20.09,0,0,1-1.68-7.9C281.59,342,285.35,334.63,293.83,328.55Zm-36.94,42.32a58.15,58.15,0,0,0,11.23,15.46,118.94,118.94,0,0,1-6.73,16.21c-1.66,0-3.33.06-5,.19-12.17.94-23.92,5.52-33.14,14.74a49.17,49.17,0,0,0-10.13,14.68,56.84,56.84,0,0,0-4.8,23.44,119.29,119.29,0,0,1-16.2,6.72c-9.81-9.84-22.71-16.41-37.53-16.41s-27.71,6.57-37.52,16.41a119.29,119.29,0,0,1-16.2-6.72,56.54,56.54,0,0,0-4.81-23.44,48.42,48.42,0,0,0-4.76-8.34A49.6,49.6,0,0,0,86,417.47c-10.48-10.47-24.23-15-38.12-14.93a118.89,118.89,0,0,1-6.72-16.21c9.84-9.81,16.4-22.7,16.4-37.52S51,321.1,41.12,311.29a118,118,0,0,1,6.72-16.2c13.89,0,27.64-4.45,38.12-14.94a48.92,48.92,0,0,0,5.36-6.34c6.66-9.39,9.59-20.54,9.57-31.78a119.24,119.24,0,0,1,16.2-6.71,60.28,60.28,0,0,0,7.19,6.18,51.7,51.7,0,0,0,22.29,9.55,48.19,48.19,0,0,0,8,.67c14.82,0,27.72-6.56,37.53-16.4a119.24,119.24,0,0,1,16.2,6.71q0,2.64.21,5.25a53.24,53.24,0,0,0,8.52,25.31,49.3,49.3,0,0,0,6.2,7.56c10,10,23,14.55,36.26,14.92l1.86,0a119.34,119.34,0,0,1,6.73,16.2,56.58,56.58,0,0,0-13.37,20.45,49.07,49.07,0,0,0-3,17.07A49.71,49.71,0,0,0,256.89,370.87Z"/><path d="M473.69,172.91a25.73,25.73,0,0,1-9-10.49,17,17,0,0,1-1.42-6.7c0-5.77,3.18-12,10.38-17.19a12.68,12.68,0,0,0,4.92-13.36A126.28,126.28,0,0,0,464.7,91.22c-.17-.31-.36-.62-.54-.92a12.7,12.7,0,0,0-12.92-6c-8.73,1.44-15.41-.73-19.5-4.81-3.78-3.78-5.92-9.8-5.07-17.63.07-.61.15-1.23.26-1.87a12.65,12.65,0,0,0-6-12.91,126.31,126.31,0,0,0-32.85-13.94l-2-.52a12.67,12.67,0,0,0-13.35,4.92C367.59,44.78,361.33,48,355.55,48a17.79,17.79,0,0,1-9.65-3,27.85,27.85,0,0,1-7.54-7.38A12.66,12.66,0,0,0,325,32.66a125.5,125.5,0,0,0-23.18,8.21,130.93,130.93,0,0,0-11.7,6.25,12.69,12.69,0,0,0-6,12.91c1.44,8.74-.73,15.42-4.81,19.5s-10.77,6.25-19.5,4.81a12.68,12.68,0,0,0-12.91,6,125.76,125.76,0,0,0-14.46,34.88,12.67,12.67,0,0,0,4.92,13.35c7.2,5.15,10.39,11.42,10.39,17.19s-3.19,12-10.39,17.19a12.67,12.67,0,0,0-4.92,13.35A125.83,125.83,0,0,0,247,221.13a12.65,12.65,0,0,0,12.91,6c8.74-1.43,15.41.73,19.5,4.81s6.25,10.77,4.81,19.5a12.69,12.69,0,0,0,6,12.92A126.37,126.37,0,0,0,325,278.78a12.68,12.68,0,0,0,13.34-4.93c5.16-7.19,11.42-10.38,17.19-10.38s12,3.19,17.2,10.38a12.69,12.69,0,0,0,13.35,4.93A126.43,126.43,0,0,0,421,264.32a12.66,12.66,0,0,0,6-12.92c-1.44-8.73.73-15.41,4.81-19.5s10.77-6.24,19.5-4.81a12.71,12.71,0,0,0,12.92-6,126.45,126.45,0,0,0,12.91-29.23c.56-1.87,1.07-3.74,1.54-5.64A12.67,12.67,0,0,0,473.69,172.91Zm-31.34,1.52a49.35,49.35,0,0,0,9.52,13.13,101.21,101.21,0,0,1-5.7,13.75c-1.42,0-2.83.05-4.23.16-10.33.8-20.3,4.68-28.12,12.51a41.81,41.81,0,0,0-8.6,12.46,48,48,0,0,0-4.07,19.89A100.47,100.47,0,0,1,387.4,252c-8.33-8.35-19.27-13.92-31.85-13.92S332,243.68,323.71,252a99.83,99.83,0,0,1-13.74-5.7,48.17,48.17,0,0,0-4.08-19.89,41.73,41.73,0,0,0-8.6-12.46c-8.89-8.89-20.56-12.69-32.35-12.67a101.21,101.21,0,0,1-5.7-13.75c8.36-8.33,13.92-19.27,13.92-31.84s-5.56-23.52-13.92-31.85a101.62,101.62,0,0,1,5.7-13.74c11.79,0,23.46-3.78,32.35-12.68a40.91,40.91,0,0,0,4.55-5.38,46.07,46.07,0,0,0,8.13-27,101.08,101.08,0,0,1,13.74-5.7,50.61,50.61,0,0,0,6.1,5.25,44,44,0,0,0,18.92,8.11,41.3,41.3,0,0,0,6.82.56c12.58,0,23.52-5.56,31.85-13.92a101.74,101.74,0,0,1,13.75,5.7c0,1.49.06,3,.18,4.46A45.17,45.17,0,0,0,408.55,91a42.29,42.29,0,0,0,5.27,6.42c8.49,8.51,19.52,12.35,30.77,12.66l1.58,0a101.62,101.62,0,0,1,5.7,13.74,48.19,48.19,0,0,0-11.34,17.36,42,42,0,0,0,1.82,33.2Z"/><path d="M385.94,115.12a50.48,50.48,0,0,0-27.59-10c-.93,0-1.86-.08-2.8-.08a50.73,50.73,0,1,0,30.39,10.11ZM367.66,178a25.35,25.35,0,1,1,13.15-24.51c.06.74.1,1.49.1,2.24A25.34,25.34,0,0,1,367.66,178Z"/></svg>