<svg id="Layer_1" data-name="Layer 1" xmlns="http://www.w3.org/2000/svg" viewBox="0 0 512 512"><g id="页面-1"><g id="System"><g id="entrance_line" data-name="entrance line"><rect id="矩形" x="13.27" y="19.5" width="492.5" height="492.5" fill="none"/><path id="形状" d="M259.52,81.06A20.53,20.53,0,0,1,261.91,122l-2.39.13H156.91a20.53,20.53,0,0,0-20.38,18.13l-.14,2.39V388.87a20.53,20.53,0,0,0,18.13,20.39l2.39.14h92.35a20.52,20.52,0,0,1,2.39,40.9l-2.39.14H156.91a61.58,61.58,0,0,1-61.46-57.95l-.1-3.62V142.62a61.56,61.56,0,0,1,57.94-61.45l3.62-.11ZM376.63,193.2l58,58a20.53,20.53,0,0,1,0,29l-58,58a20.52,20.52,0,0,1-29-29l23-23H259.52a20.52,20.52,0,1,1,0-41h111.1l-23-23a20.52,20.52,0,1,1,29-29Z"/></g></g></g></svg>