<svg id="Layer_1" data-name="Layer 1" xmlns="http://www.w3.org/2000/svg" viewBox="0 0 512 493.17"><g id="页面-1"><g id="Building"><g id="home_3_line" data-name="home 3 line"><rect id="矩形" x="-5.45" y="-19.28" width="522.89" height="522.89" fill="none"/><path id="形状" d="M229.25,39.29a43.58,43.58,0,0,1,50.48-2.15l3,2.15L465.41,181.36c15.73,12.23,8.07,36.86-10.86,38.89l-2.53.13H430.3v174.3A43.59,43.59,0,0,1,390,438.14l-3.25.12H125.28a43.59,43.59,0,0,1-43.46-40.33l-.12-3.25V220.38H60c-19.9,0-29-24.13-15.31-37.36l1.92-1.66ZM256,73.69l-138.88,108a22,22,0,0,1,8.16,17.11V394.68h65.36V285.75a65.36,65.36,0,1,1,130.72,0V394.68h65.37V198.82a22,22,0,0,1,8.15-17.11ZM256,264a21.79,21.79,0,0,0-21.79,21.79V394.68h43.58V285.75A21.79,21.79,0,0,0,256,264Z"/></g></g></g></svg>