<svg id="Layer_1" data-name="Layer 1" xmlns="http://www.w3.org/2000/svg" viewBox="0 0 512 512"><path d="M177.47,31.35H99.94a60.07,60.07,0,0,0-60,60v77.53a60.06,60.06,0,0,0,60,60h77.53a60.07,60.07,0,0,0,60-60V91.35A60.07,60.07,0,0,0,177.47,31.35ZM199,163.13a27.29,27.29,0,0,1-27.26,27.26h-66a27.29,27.29,0,0,1-27.26-27.26v-66a27.28,27.28,0,0,1,27.26-27.25h66A27.28,27.28,0,0,1,199,97.1Z"/><path d="M413.51,31.35H336a60.07,60.07,0,0,0-60,60v77.53a60.07,60.07,0,0,0,60,60h77.53a60.06,60.06,0,0,0,60-60V91.35A60.07,60.07,0,0,0,413.51,31.35ZM435,163.13a27.29,27.29,0,0,1-27.26,27.26h-66a27.29,27.29,0,0,1-27.26-27.26v-66a27.28,27.28,0,0,1,27.26-27.25h66A27.28,27.28,0,0,1,435,97.1Z"/><path d="M177.47,266.25H99.94a60.07,60.07,0,0,0-60,60v77.53a60.07,60.07,0,0,0,60,60h77.53a60.07,60.07,0,0,0,60-60V326.25A60.07,60.07,0,0,0,177.47,266.25ZM199,398a27.29,27.29,0,0,1-27.26,27.26h-66A27.29,27.29,0,0,1,78.43,398V332a27.29,27.29,0,0,1,27.26-27.26h66A27.29,27.29,0,0,1,199,332Z"/><path d="M413.51,266.25H336a60.07,60.07,0,0,0-60,60v77.53a60.07,60.07,0,0,0,60,60h77.53a60.07,60.07,0,0,0,60-60V326.25A60.07,60.07,0,0,0,413.51,266.25ZM435,398a27.29,27.29,0,0,1-27.26,27.26h-66A27.29,27.29,0,0,1,314.47,398V332a27.29,27.29,0,0,1,27.26-27.26h66A27.29,27.29,0,0,1,435,332Z"/></svg>