<svg id="Layer_1" data-name="Layer 1" xmlns="http://www.w3.org/2000/svg" viewBox="0 0 512 493.17"><rect x="56.68" y="114.59" width="241.98" height="190.13" fill="none"/><rect x="160.38" y="339.29" width="34.57" height="17.28" fill="none"/><path d="M298.66,80h-242a34.57,34.57,0,0,0-34.57,34.57V304.72a34.57,34.57,0,0,0,34.57,34.57h69.14v17.28H108.53a17.29,17.29,0,0,0,0,34.57H246.81a17.29,17.29,0,0,0,0-34.57H229.52V339.29h69.14a34.57,34.57,0,0,0,34.57-34.57V114.59A34.57,34.57,0,0,0,298.66,80ZM195,356.57H160.38V339.29H195Zm103.71-51.85h-242V114.59h242Z"/><rect x="366.75" y="93.85" width="130.64" height="290.12" rx="5.02" fill="#fff"/><path d="M486.89,104.35V373.47H377.25V104.35H486.89m5.48-21H371.77a15.52,15.52,0,0,0-15.52,15.52V379a15.52,15.52,0,0,0,15.52,15.52h120.6A15.52,15.52,0,0,0,507.89,379V98.87a15.52,15.52,0,0,0-15.52-15.52Z" fill="#1d1d1b"/></svg>