<svg id="Layer_1" data-name="Layer 1" xmlns="http://www.w3.org/2000/svg" viewBox="0 0 512 493.17"><path d="M500.49,395.51c-.77,1.82-1.43,3.69-2.31,5.44C490.89,415.43,479.42,424,463,424.06q-197.54.18-395.06-.12c-20.18-.05-31.77-10.1-37.36-29a16.34,16.34,0,0,1-.21-4.44c0-62.3.18-124.61-.14-186.91-.07-14.9,9.24-29.51,24.92-34.27A55.64,55.64,0,0,1,71,166.67c59.88-.19,119.77-.12,179.65-.12h5.1c2-7.75,3.49-15.31,5.88-22.58,5.24-15.88,15.79-27.13,31.91-31.78,11.56-3.33,23.59-5.11,35.46-7.31,9.88-1.82,20-3.1,28.8-8.18,9.9-5.71,14.74-15.3,16.59-26.27,1.35-8.05,2-16.21,3-24.46L397,47c-.36,6.59-.33,13.34-1.19,20a73.7,73.7,0,0,1-12.46,32c-7.67,11.35-18.7,18.16-31.92,20.93-13.55,2.83-27.3,4.7-40.9,7.31-11.31,2.17-21.48,6.61-27.73,17.05-4,6.68-5.94,14-6.71,22.25h5.69q88.93,0,177.87,0c13.59,0,25.34,4.43,33.51,15.76,3,4.18,4.94,9.14,7.37,13.73ZM265.4,186.23c-65.69,0-131.39.13-197.09-.14-10.17,0-18.36,9.6-18.36,18.44Q50,295.74,50,387a19.17,19.17,0,0,0,.63,4.3c2.14,9.19,10,14.06,22.14,14.06q188.37,0,376.75,0c5.15,0,10.31-.41,15.45-.89A17.38,17.38,0,0,0,480.82,387q0-91.22,0-182.44c0-8.84-8.19-18.48-18.36-18.44C396.8,186.36,331.1,186.23,265.4,186.23Z"/><path d="M340.32,332.36V369.3H190.56V332.36Z"/><path d="M142.62,313.92H77v-37h65.58Z"/><path d="M453,276.93v36.86H387.27V276.93Z"/><path d="M256.2,313.9H217.47v-37H256.2Z"/><path d="M114.86,259.47H77.14V222.3h37.72Z"/><path d="M133.27,259.2V222.28h38V259.2Z"/><path d="M228.42,259.38H190.57v-37h37.85Z"/><path d="M245.93,259.25v-37h37.89v37Z"/><path d="M340.17,259.37H302.29v-37h37.88Z"/><path d="M397.38,259.37H359.49v-37h37.89Z"/><path d="M452.91,222.32v37H415v-37Z"/><path d="M200,276.87v37H162.07v-37Z"/><path d="M312.57,276.86v37H274.68v-37Z"/><path d="M369,276.83v36.94H331V276.83Z"/><path d="M114.92,369.37H77v-37h37.89Z"/><path d="M133.31,369.26v-37h37.88v37Z"/><path d="M397.38,369.37H359.49v-37h37.89Z"/><path d="M415,332.21h37.88v37H415Z"/></svg>