<svg id="Layer_1" data-name="Layer 1" xmlns="http://www.w3.org/2000/svg" viewBox="0 0 512 512"><path d="M466,148.26,364.51,49.16a20.49,20.49,0,0,0-14.32-5.83H203.91A67.76,67.76,0,0,0,136.22,111v8.87a20.29,20.29,0,0,0-13.34-1.46,67.87,67.87,0,0,0-52.59,66V432.14A67.77,67.77,0,0,0,138,499.83H338.53a67.77,67.77,0,0,0,67.69-67.69v-2.68a20.6,20.6,0,0,0-.26-3.06,67.75,67.75,0,0,0,66.18-67.65V162.92A20.47,20.47,0,0,0,466,148.26ZM366,107.9l42.59,41.6H366Zm-.75,324.24a26.73,26.73,0,0,1-26.69,26.69H138a26.73,26.73,0,0,1-26.7-26.69V184.41a26.93,26.93,0,0,1,20.77-26,21.31,21.31,0,0,0,4.16-1.45V358.75a67.77,67.77,0,0,0,67.69,67.69H365.46a21.46,21.46,0,0,0-.24,3Zm65.92-73.39a26.72,26.72,0,0,1-26.69,26.69H203.91a26.72,26.72,0,0,1-26.69-26.69V111a26.72,26.72,0,0,1,26.69-26.69H325V170a20.5,20.5,0,0,0,20.5,20.5h85.67Z"/></svg>